<svg width="1024" height="2048" viewBox="0 0 1024 2048" fill="none" xmlns="http://www.w3.org/2000/svg">
<g clip-path="url(#clip0_175_1884)">
<rect width="1024" height="2048" fill="#121214"/>
<g opacity="0.2" filter="url(#filter0_f_175_1884)">
<ellipse cx="531.5" cy="189" rx="670.5" ry="350" fill="#338AF3"/>
</g>
<path d="M52.0349 425C53.5302 425 54.6622 425.63 55.4308 426.891C56.2134 428.138 56.6047 429.953 56.6047 432.336C56.6047 434.719 56.2134 436.541 55.4308 437.802C54.6622 439.063 53.5302 439.693 52.0349 439.693C50.5536 439.693 49.4216 439.063 48.639 437.802C47.8564 436.541 47.4651 434.719 47.4651 432.336C47.4651 429.967 47.8564 428.152 48.639 426.891C49.4216 425.63 50.5536 425 52.0349 425ZM48.9534 432.336C48.9534 434.026 49.1072 435.35 49.4146 436.306L54.0683 427.099C53.5791 426.448 52.9013 426.122 52.0349 426.122C51.0706 426.122 50.316 426.635 49.771 427.66C49.2259 428.672 48.9534 430.23 48.9534 432.336ZM52.0349 438.55C53.0131 438.55 53.7748 438.044 54.3198 437.033C54.8648 436.008 55.1373 434.442 55.1373 432.336C55.1373 430.549 54.9627 429.163 54.6133 428.18L49.9596 437.469C50.4627 438.19 51.1545 438.55 52.0349 438.55Z" fill="url(#paint0_linear_175_1884)" fill-opacity="0.6"/>
<path d="M53.2926 462.135H56.3741V463.236H48.3874V462.135H51.9511V450.455L48.5551 452.471L47.9682 451.536L52.1607 448.959H53.2926V462.135Z" fill="url(#paint1_linear_175_1884)" fill-opacity="0.6"/>
<path d="M52.0349 472.502C53.5302 472.502 54.6622 473.133 55.4308 474.393C56.2134 475.64 56.6047 477.455 56.6047 479.838C56.6047 482.221 56.2134 484.043 55.4308 485.304C54.6622 486.565 53.5302 487.195 52.0349 487.195C50.5536 487.195 49.4216 486.565 48.639 485.304C47.8564 484.043 47.4651 482.221 47.4651 479.838C47.4651 477.469 47.8564 475.654 48.639 474.393C49.4216 473.133 50.5536 472.502 52.0349 472.502ZM48.9534 479.838C48.9534 481.529 49.1072 482.852 49.4146 483.808L54.0683 474.601C53.5791 473.95 52.9013 473.624 52.0349 473.624C51.0706 473.624 50.316 474.137 49.771 475.162C49.2259 476.174 48.9534 477.732 48.9534 479.838ZM52.0349 486.052C53.0131 486.052 53.7748 485.546 54.3198 484.535C54.8648 483.51 55.1373 481.944 55.1373 479.838C55.1373 478.051 54.9627 476.665 54.6133 475.682L49.9596 484.971C50.4627 485.692 51.1545 486.052 52.0349 486.052Z" fill="url(#paint2_linear_175_1884)" fill-opacity="0.6"/>
<path d="M53.2926 509.637H56.3741V510.738H48.3874V509.637H51.9511V497.957L48.5551 499.973L47.9682 499.038L52.1607 496.461H53.2926V509.637Z" fill="url(#paint3_linear_175_1884)" fill-opacity="0.6"/>
<path d="M53.2926 533.388H56.3741V534.489H48.3874V533.388H51.9511V521.708L48.5551 523.724L47.9682 522.789L52.1607 520.212H53.2926V533.388Z" fill="url(#paint4_linear_175_1884)" fill-opacity="0.6"/>
<path d="M52.0349 543.755C53.5302 543.755 54.6622 544.386 55.4308 545.646C56.2134 546.893 56.6047 548.708 56.6047 551.091C56.6047 553.474 56.2134 555.296 55.4308 556.557C54.6622 557.818 53.5302 558.448 52.0349 558.448C50.5536 558.448 49.4216 557.818 48.639 556.557C47.8564 555.296 47.4651 553.474 47.4651 551.091C47.4651 548.722 47.8564 546.907 48.639 545.646C49.4216 544.386 50.5536 543.755 52.0349 543.755ZM48.9534 551.091C48.9534 552.782 49.1072 554.105 49.4146 555.061L54.0683 545.854C53.5791 545.203 52.9013 544.878 52.0349 544.878C51.0706 544.878 50.316 545.39 49.771 546.415C49.2259 547.427 48.9534 548.985 48.9534 551.091ZM52.0349 557.305C53.0131 557.305 53.7748 556.8 54.3198 555.788C54.8648 554.763 55.1373 553.197 55.1373 551.091C55.1373 549.304 54.9627 547.919 54.6133 546.935L49.9596 556.225C50.4627 556.945 51.1545 557.305 52.0349 557.305Z" fill="url(#paint5_linear_175_1884)" fill-opacity="0.6"/>
<path d="M53.2926 580.89H56.3741V581.992H48.3874V580.89H51.9511V569.21L48.5551 571.226L47.9682 570.291L52.1607 567.714H53.2926V580.89Z" fill="url(#paint6_linear_175_1884)" fill-opacity="0.6"/>
<path d="M52.0349 591.257C53.5302 591.257 54.6622 591.888 55.4308 593.149C56.2134 594.396 56.6047 596.211 56.6047 598.594C56.6047 600.977 56.2134 602.798 55.4308 604.059C54.6622 605.32 53.5302 605.95 52.0349 605.95C50.5536 605.95 49.4216 605.32 48.639 604.059C47.8564 602.798 47.4651 600.977 47.4651 598.594C47.4651 596.224 47.8564 594.409 48.639 593.149C49.4216 591.888 50.5536 591.257 52.0349 591.257ZM48.9534 598.594C48.9534 600.284 49.1072 601.607 49.4146 602.563L54.0683 593.356C53.5791 592.705 52.9013 592.38 52.0349 592.38C51.0706 592.38 50.316 592.892 49.771 593.918C49.2259 594.929 48.9534 596.488 48.9534 598.594ZM52.0349 604.807C53.0131 604.807 53.7748 604.302 54.3198 603.29C54.8648 602.265 55.1373 600.699 55.1373 598.594C55.1373 596.806 54.9627 595.421 54.6133 594.437L49.9596 603.727C50.4627 604.447 51.1545 604.807 52.0349 604.807Z" fill="url(#paint7_linear_175_1884)" fill-opacity="0.6"/>
<path d="M52.0349 615.008C53.5302 615.008 54.6622 615.639 55.4308 616.9C56.2134 618.147 56.6047 619.962 56.6047 622.345C56.6047 624.728 56.2134 626.549 55.4308 627.81C54.6622 629.071 53.5302 629.701 52.0349 629.701C50.5536 629.701 49.4216 629.071 48.639 627.81C47.8564 626.549 47.4651 624.728 47.4651 622.345C47.4651 619.975 47.8564 618.16 48.639 616.9C49.4216 615.639 50.5536 615.008 52.0349 615.008ZM48.9534 622.345C48.9534 624.035 49.1072 625.358 49.4146 626.314L54.0683 617.107C53.5791 616.456 52.9013 616.131 52.0349 616.131C51.0706 616.131 50.316 616.643 49.771 617.669C49.2259 618.68 48.9534 620.239 48.9534 622.345ZM52.0349 628.558C53.0131 628.558 53.7748 628.053 54.3198 627.041C54.8648 626.016 55.1373 624.451 55.1373 622.345C55.1373 620.557 54.9627 619.172 54.6133 618.188L49.9596 627.478C50.4627 628.198 51.1545 628.558 52.0349 628.558Z" fill="url(#paint8_linear_175_1884)" fill-opacity="0.6"/>
<path d="M53.2926 652.143H56.3741V653.245H48.3874V652.143H51.9511V640.464L48.5551 642.48L47.9682 641.544L52.1607 638.967H53.2926V652.143Z" fill="url(#paint9_linear_175_1884)" fill-opacity="0.6"/>
<path d="M52.0349 662.511C53.5302 662.511 54.6622 663.141 55.4308 664.402C56.2134 665.649 56.6047 667.464 56.6047 669.847C56.6047 672.23 56.2134 674.052 55.4308 675.312C54.6622 676.573 53.5302 677.204 52.0349 677.204C50.5536 677.204 49.4216 676.573 48.639 675.312C47.8564 674.052 47.4651 672.23 47.4651 669.847C47.4651 667.478 47.8564 665.663 48.639 664.402C49.4216 663.141 50.5536 662.511 52.0349 662.511ZM48.9534 669.847C48.9534 671.537 49.1072 672.86 49.4146 673.816L54.0683 664.61C53.5791 663.958 52.9013 663.633 52.0349 663.633C51.0706 663.633 50.316 664.145 49.771 665.171C49.2259 666.182 48.9534 667.741 48.9534 669.847ZM52.0349 676.061C53.0131 676.061 53.7748 675.555 54.3198 674.543C54.8648 673.518 55.1373 671.953 55.1373 669.847C55.1373 668.059 54.9627 666.674 54.6133 665.69L49.9596 674.98C50.4627 675.7 51.1545 676.061 52.0349 676.061Z" fill="url(#paint10_linear_175_1884)" fill-opacity="0.6"/>
<path d="M53.2926 699.645H56.3741V700.747H48.3874V699.645H51.9511V687.966L48.5551 689.982L47.9682 689.046L52.1607 686.469H53.2926V699.645Z" fill="url(#paint11_linear_175_1884)" fill-opacity="0.6"/>
<path d="M53.2926 723.396H56.3741V724.498H48.3874V723.396H51.9511V711.717L48.5551 713.733L47.9682 712.798L52.1607 710.221H53.2926V723.396Z" fill="url(#paint12_linear_175_1884)" fill-opacity="0.6"/>
<path d="M90.9651 472.502C92.4604 472.502 93.5924 473.133 94.361 474.393C95.1436 475.64 95.5349 477.455 95.5349 479.838C95.5349 482.221 95.1436 484.043 94.361 485.304C93.5924 486.565 92.4604 487.195 90.9651 487.195C89.4838 487.195 88.3518 486.565 87.5692 485.304C86.7866 484.043 86.3953 482.221 86.3953 479.838C86.3953 477.469 86.7866 475.654 87.5692 474.393C88.3518 473.133 89.4838 472.502 90.9651 472.502ZM87.8836 479.838C87.8836 481.529 88.0374 482.852 88.3448 483.808L92.9985 474.601C92.5093 473.95 91.8315 473.624 90.9651 473.624C90.0008 473.624 89.2462 474.137 88.7012 475.162C88.1561 476.174 87.8836 477.732 87.8836 479.838ZM90.9651 486.052C91.9433 486.052 92.705 485.546 93.25 484.535C93.795 483.51 94.0675 481.944 94.0675 479.838C94.0675 478.051 93.8928 476.665 93.5435 475.682L88.8898 484.971C89.3929 485.692 90.0847 486.052 90.9651 486.052Z" fill="url(#paint13_linear_175_1884)" fill-opacity="0.6"/>
<path d="M92.2228 509.637H95.3043V510.738H87.3176V509.637H90.8812V497.957L87.4853 499.973L86.8984 499.038L91.0909 496.461H92.2228V509.637Z" fill="url(#paint14_linear_175_1884)" fill-opacity="0.6"/>
<path d="M90.9651 520.004C92.4604 520.004 93.5924 520.635 94.361 521.895C95.1436 523.142 95.5349 524.957 95.5349 527.34C95.5349 529.723 95.1436 531.545 94.361 532.806C93.5924 534.067 92.4604 534.697 90.9651 534.697C89.4838 534.697 88.3518 534.067 87.5692 532.806C86.7866 531.545 86.3953 529.723 86.3953 527.34C86.3953 524.971 86.7866 523.156 87.5692 521.895C88.3518 520.635 89.4838 520.004 90.9651 520.004ZM87.8836 527.34C87.8836 529.031 88.0374 530.354 88.3448 531.31L92.9985 522.103C92.5093 521.452 91.8315 521.126 90.9651 521.126C90.0008 521.126 89.2462 521.639 88.7012 522.664C88.1561 523.676 87.8836 525.234 87.8836 527.34ZM90.9651 533.554C91.9433 533.554 92.705 533.049 93.25 532.037C93.795 531.012 94.0675 529.446 94.0675 527.34C94.0675 525.553 93.8928 524.168 93.5435 523.184L88.8898 532.474C89.3929 533.194 90.0847 533.554 90.9651 533.554Z" fill="url(#paint15_linear_175_1884)" fill-opacity="0.6"/>
<path d="M90.9651 543.755C92.4604 543.755 93.5924 544.386 94.361 545.646C95.1436 546.893 95.5349 548.708 95.5349 551.091C95.5349 553.474 95.1436 555.296 94.361 556.557C93.5924 557.818 92.4604 558.448 90.9651 558.448C89.4838 558.448 88.3518 557.818 87.5692 556.557C86.7866 555.296 86.3953 553.474 86.3953 551.091C86.3953 548.722 86.7866 546.907 87.5692 545.646C88.3518 544.386 89.4838 543.755 90.9651 543.755ZM87.8836 551.091C87.8836 552.782 88.0374 554.105 88.3448 555.061L92.9985 545.854C92.5093 545.203 91.8315 544.878 90.9651 544.878C90.0008 544.878 89.2462 545.39 88.7012 546.415C88.1561 547.427 87.8836 548.985 87.8836 551.091ZM90.9651 557.305C91.9433 557.305 92.705 556.8 93.25 555.788C93.795 554.763 94.0675 553.197 94.0675 551.091C94.0675 549.304 93.8928 547.919 93.5435 546.935L88.8898 556.225C89.3929 556.945 90.0847 557.305 90.9651 557.305Z" fill="url(#paint16_linear_175_1884)" fill-opacity="0.6"/>
<path d="M92.2228 580.89H95.3043V581.992H87.3176V580.89H90.8812V569.21L87.4853 571.226L86.8984 570.291L91.0909 567.714H92.2228V580.89Z" fill="url(#paint17_linear_175_1884)" fill-opacity="0.6"/>
<path d="M90.9651 591.257C92.4604 591.257 93.5924 591.888 94.361 593.149C95.1436 594.396 95.5349 596.211 95.5349 598.594C95.5349 600.977 95.1436 602.798 94.361 604.059C93.5924 605.32 92.4604 605.95 90.9651 605.95C89.4838 605.95 88.3518 605.32 87.5692 604.059C86.7866 602.798 86.3953 600.977 86.3953 598.594C86.3953 596.224 86.7866 594.409 87.5692 593.149C88.3518 591.888 89.4838 591.257 90.9651 591.257ZM87.8836 598.594C87.8836 600.284 88.0374 601.607 88.3448 602.563L92.9985 593.356C92.5093 592.705 91.8315 592.38 90.9651 592.38C90.0008 592.38 89.2462 592.892 88.7012 593.918C88.1561 594.929 87.8836 596.488 87.8836 598.594ZM90.9651 604.807C91.9433 604.807 92.705 604.302 93.25 603.29C93.795 602.265 94.0675 600.699 94.0675 598.594C94.0675 596.806 93.8928 595.421 93.5435 594.437L88.8898 603.727C89.3929 604.447 90.0847 604.807 90.9651 604.807Z" fill="url(#paint18_linear_175_1884)" fill-opacity="0.6"/>
<path d="M92.2228 628.392H95.3043V629.494H87.3176V628.392H90.8812V616.713L87.4853 618.728L86.8984 617.793L91.0909 615.216H92.2228V628.392Z" fill="url(#paint19_linear_175_1884)" fill-opacity="0.6"/>
<path d="M90.9651 638.76C92.4604 638.76 93.5924 639.39 94.361 640.651C95.1436 641.898 95.5349 643.713 95.5349 646.096C95.5349 648.479 95.1436 650.301 94.361 651.561C93.5924 652.822 92.4604 653.453 90.9651 653.453C89.4838 653.453 88.3518 652.822 87.5692 651.561C86.7866 650.301 86.3953 648.479 86.3953 646.096C86.3953 643.726 86.7866 641.911 87.5692 640.651C88.3518 639.39 89.4838 638.76 90.9651 638.76ZM87.8836 646.096C87.8836 647.786 88.0374 649.109 88.3448 650.065L92.9985 640.859C92.5093 640.207 91.8315 639.882 90.9651 639.882C90.0008 639.882 89.2462 640.394 88.7012 641.42C88.1561 642.431 87.8836 643.99 87.8836 646.096ZM90.9651 652.31C91.9433 652.31 92.705 651.804 93.25 650.792C93.795 649.767 94.0675 648.202 94.0675 646.096C94.0675 644.308 93.8928 642.923 93.5435 641.939L88.8898 651.229C89.3929 651.949 90.0847 652.31 90.9651 652.31Z" fill="url(#paint20_linear_175_1884)" fill-opacity="0.6"/>
<path d="M90.9651 662.511C92.4604 662.511 93.5924 663.141 94.361 664.402C95.1436 665.649 95.5349 667.464 95.5349 669.847C95.5349 672.23 95.1436 674.052 94.361 675.312C93.5924 676.573 92.4604 677.204 90.9651 677.204C89.4838 677.204 88.3518 676.573 87.5692 675.312C86.7866 674.052 86.3953 672.23 86.3953 669.847C86.3953 667.478 86.7866 665.663 87.5692 664.402C88.3518 663.141 89.4838 662.511 90.9651 662.511ZM87.8836 669.847C87.8836 671.537 88.0374 672.86 88.3448 673.816L92.9985 664.61C92.5093 663.958 91.8315 663.633 90.9651 663.633C90.0008 663.633 89.2462 664.145 88.7012 665.171C88.1561 666.182 87.8836 667.741 87.8836 669.847ZM90.9651 676.061C91.9433 676.061 92.705 675.555 93.25 674.543C93.795 673.518 94.0675 671.953 94.0675 669.847C94.0675 668.059 93.8928 666.674 93.5435 665.69L88.8898 674.98C89.3929 675.7 90.0847 676.061 90.9651 676.061Z" fill="url(#paint21_linear_175_1884)" fill-opacity="0.6"/>
<path d="M92.2228 699.645H95.3043V700.747H87.3176V699.645H90.8812V687.966L87.4853 689.982L86.8984 689.046L91.0909 686.469H92.2228V699.645Z" fill="url(#paint22_linear_175_1884)" fill-opacity="0.6"/>
<path d="M90.9651 710.013C92.4604 710.013 93.5924 710.643 94.361 711.904C95.1436 713.151 95.5349 714.966 95.5349 717.349C95.5349 719.732 95.1436 721.554 94.361 722.815C93.5924 724.075 92.4604 724.706 90.9651 724.706C89.4838 724.706 88.3518 724.075 87.5692 722.815C86.7866 721.554 86.3953 719.732 86.3953 717.349C86.3953 714.98 86.7866 713.165 87.5692 711.904C88.3518 710.643 89.4838 710.013 90.9651 710.013ZM87.8836 717.349C87.8836 719.039 88.0374 720.362 88.3448 721.318L92.9985 712.112C92.5093 711.461 91.8315 711.135 90.9651 711.135C90.0008 711.135 89.2462 711.648 88.7012 712.673C88.1561 713.684 87.8836 715.243 87.8836 717.349ZM90.9651 723.563C91.9433 723.563 92.705 723.057 93.25 722.046C93.795 721.02 94.0675 719.455 94.0675 717.349C94.0675 715.562 93.8928 714.176 93.5435 713.192L88.8898 722.482C89.3929 723.202 90.0847 723.563 90.9651 723.563Z" fill="url(#paint23_linear_175_1884)" fill-opacity="0.6"/>
<path d="M92.2228 747.147H95.3043V748.249H87.3176V747.147H90.8812V735.468L87.4853 737.484L86.8984 736.549L91.0909 733.972H92.2228V747.147Z" fill="url(#paint24_linear_175_1884)" fill-opacity="0.6"/>
<path d="M92.2228 770.899H95.3043V772H87.3176V770.899H90.8812V759.219L87.4853 761.235L86.8984 760.3L91.0909 757.723H92.2228V770.899Z" fill="url(#paint25_linear_175_1884)" fill-opacity="0.6"/>
<path d="M32.5698 496.253C34.0651 496.253 35.1971 496.884 35.9657 498.144C36.7483 499.391 37.1396 501.206 37.1396 503.589C37.1396 505.972 36.7483 507.794 35.9657 509.055C35.1971 510.316 34.0651 510.946 32.5698 510.946C31.0885 510.946 29.9565 510.316 29.1739 509.055C28.3913 507.794 28 505.972 28 503.589C28 501.22 28.3913 499.405 29.1739 498.144C29.9565 496.884 31.0885 496.253 32.5698 496.253ZM29.4883 503.589C29.4883 505.28 29.6421 506.603 29.9495 507.559L34.6032 498.352C34.114 497.701 33.4363 497.375 32.5698 497.375C31.6055 497.375 30.8509 497.888 30.3059 498.913C29.7608 499.925 29.4883 501.483 29.4883 503.589ZM32.5698 509.803C33.5481 509.803 34.3097 509.297 34.8547 508.286C35.3997 507.261 35.6722 505.695 35.6722 503.589C35.6722 501.802 35.4976 500.417 35.1482 499.433L30.4945 508.722C30.9976 509.443 31.6894 509.803 32.5698 509.803Z" fill="url(#paint26_linear_175_1884)" fill-opacity="0.6"/>
<path d="M32.5698 520.004C34.0651 520.004 35.1971 520.635 35.9657 521.895C36.7483 523.142 37.1396 524.957 37.1396 527.34C37.1396 529.723 36.7483 531.545 35.9657 532.806C35.1971 534.067 34.0651 534.697 32.5698 534.697C31.0885 534.697 29.9565 534.067 29.1739 532.806C28.3913 531.545 28 529.723 28 527.34C28 524.971 28.3913 523.156 29.1739 521.895C29.9565 520.635 31.0885 520.004 32.5698 520.004ZM29.4883 527.34C29.4883 529.031 29.6421 530.354 29.9495 531.31L34.6032 522.103C34.114 521.452 33.4363 521.126 32.5698 521.126C31.6055 521.126 30.8509 521.639 30.3059 522.664C29.7608 523.676 29.4883 525.234 29.4883 527.34ZM32.5698 533.554C33.5481 533.554 34.3097 533.049 34.8547 532.037C35.3997 531.012 35.6722 529.446 35.6722 527.34C35.6722 525.553 35.4976 524.168 35.1482 523.184L30.4945 532.474C30.9976 533.194 31.6894 533.554 32.5698 533.554Z" fill="url(#paint27_linear_175_1884)" fill-opacity="0.6"/>
<path d="M33.8276 557.139H36.909V558.24H28.9223V557.139H32.486V545.459L29.09 547.475L28.5031 546.54L32.6956 543.963H33.8276V557.139Z" fill="url(#paint28_linear_175_1884)" fill-opacity="0.6"/>
<path d="M32.5698 567.506C34.0651 567.506 35.1971 568.137 35.9657 569.398C36.7483 570.644 37.1396 572.459 37.1396 574.842C37.1396 577.225 36.7483 579.047 35.9657 580.308C35.1971 581.569 34.0651 582.199 32.5698 582.199C31.0885 582.199 29.9565 581.569 29.1739 580.308C28.3913 579.047 28 577.225 28 574.842C28 572.473 28.3913 570.658 29.1739 569.398C29.9565 568.137 31.0885 567.506 32.5698 567.506ZM29.4883 574.842C29.4883 576.533 29.6421 577.856 29.9495 578.812L34.6032 569.605C34.114 568.954 33.4363 568.629 32.5698 568.629C31.6055 568.629 30.8509 569.141 30.3059 570.166C29.7608 571.178 29.4883 572.737 29.4883 574.842ZM32.5698 581.056C33.5481 581.056 34.3097 580.551 34.8547 579.539C35.3997 578.514 35.6722 576.948 35.6722 574.842C35.6722 573.055 35.4976 571.67 35.1482 570.686L30.4945 579.976C30.9976 580.696 31.6894 581.056 32.5698 581.056Z" fill="url(#paint29_linear_175_1884)" fill-opacity="0.6"/>
<path d="M33.8276 604.641H36.909V605.743H28.9223V604.641H32.486V592.962L29.09 594.977L28.5031 594.042L32.6956 591.465H33.8276V604.641Z" fill="url(#paint30_linear_175_1884)" fill-opacity="0.6"/>
<path d="M33.8276 628.392H36.909V629.494H28.9223V628.392H32.486V616.713L29.09 618.728L28.5031 617.793L32.6956 615.216H33.8276V628.392Z" fill="url(#paint31_linear_175_1884)" fill-opacity="0.6"/>
<path d="M72.7577 462.135H75.8392V463.236H67.8525V462.135H71.4162V450.455L68.0202 452.471L67.4333 451.536L71.6258 448.959H72.7577V462.135Z" fill="url(#paint32_linear_175_1884)" fill-opacity="0.6"/>
<path d="M71.5 472.502C72.9953 472.502 74.1273 473.133 74.8959 474.393C75.6785 475.64 76.0698 477.455 76.0698 479.838C76.0698 482.221 75.6785 484.043 74.8959 485.304C74.1273 486.565 72.9953 487.195 71.5 487.195C70.0187 487.195 68.8867 486.565 68.1041 485.304C67.3215 484.043 66.9302 482.221 66.9302 479.838C66.9302 477.469 67.3215 475.654 68.1041 474.393C68.8867 473.133 70.0187 472.502 71.5 472.502ZM68.4185 479.838C68.4185 481.529 68.5723 482.852 68.8797 483.808L73.5334 474.601C73.0442 473.95 72.3664 473.624 71.5 473.624C70.5357 473.624 69.7811 474.137 69.2361 475.162C68.691 476.174 68.4185 477.732 68.4185 479.838ZM71.5 486.052C72.4782 486.052 73.2399 485.546 73.7849 484.535C74.3299 483.51 74.6024 481.944 74.6024 479.838C74.6024 478.051 74.4277 476.665 74.0784 475.682L69.4247 484.971C69.9278 485.692 70.6196 486.052 71.5 486.052Z" fill="url(#paint33_linear_175_1884)" fill-opacity="0.6"/>
<path d="M72.7577 509.637H75.8392V510.738H67.8525V509.637H71.4162V497.957L68.0202 499.973L67.4333 499.038L71.6258 496.461H72.7577V509.637Z" fill="url(#paint34_linear_175_1884)" fill-opacity="0.6"/>
<path d="M72.7577 533.388H75.8392V534.489H67.8525V533.388H71.4162V521.708L68.0202 523.724L67.4333 522.789L71.6258 520.212H72.7577V533.388Z" fill="url(#paint35_linear_175_1884)" fill-opacity="0.6"/>
<path d="M71.5 543.755C72.9953 543.755 74.1273 544.386 74.8959 545.646C75.6785 546.893 76.0698 548.708 76.0698 551.091C76.0698 553.474 75.6785 555.296 74.8959 556.557C74.1273 557.818 72.9953 558.448 71.5 558.448C70.0187 558.448 68.8867 557.818 68.1041 556.557C67.3215 555.296 66.9302 553.474 66.9302 551.091C66.9302 548.722 67.3215 546.907 68.1041 545.646C68.8867 544.386 70.0187 543.755 71.5 543.755ZM68.4185 551.091C68.4185 552.782 68.5723 554.105 68.8797 555.061L73.5334 545.854C73.0442 545.203 72.3664 544.878 71.5 544.878C70.5357 544.878 69.7811 545.39 69.2361 546.415C68.691 547.427 68.4185 548.985 68.4185 551.091ZM71.5 557.305C72.4782 557.305 73.2399 556.8 73.7849 555.788C74.3299 554.763 74.6024 553.197 74.6024 551.091C74.6024 549.304 74.4277 547.919 74.0784 546.935L69.4247 556.225C69.9278 556.945 70.6196 557.305 71.5 557.305Z" fill="url(#paint36_linear_175_1884)" fill-opacity="0.6"/>
<path d="M72.7577 580.89H75.8392V581.992H67.8525V580.89H71.4162V569.21L68.0202 571.226L67.4333 570.291L71.6258 567.714H72.7577V580.89Z" fill="url(#paint37_linear_175_1884)" fill-opacity="0.6"/>
<path d="M72.7577 604.641H75.8392V605.743H67.8525V604.641H71.4162V592.962L68.0202 594.977L67.4333 594.042L71.6258 591.465H72.7577V604.641Z" fill="url(#paint38_linear_175_1884)" fill-opacity="0.6"/>
<path d="M71.5 615.008C72.9953 615.008 74.1273 615.639 74.8959 616.9C75.6785 618.147 76.0698 619.962 76.0698 622.345C76.0698 624.728 75.6785 626.549 74.8959 627.81C74.1273 629.071 72.9953 629.701 71.5 629.701C70.0187 629.701 68.8867 629.071 68.1041 627.81C67.3215 626.549 66.9302 624.728 66.9302 622.345C66.9302 619.975 67.3215 618.16 68.1041 616.9C68.8867 615.639 70.0187 615.008 71.5 615.008ZM68.4185 622.345C68.4185 624.035 68.5723 625.358 68.8797 626.314L73.5334 617.107C73.0442 616.456 72.3664 616.131 71.5 616.131C70.5357 616.131 69.7811 616.643 69.2361 617.669C68.691 618.68 68.4185 620.239 68.4185 622.345ZM71.5 628.558C72.4782 628.558 73.2399 628.053 73.7849 627.041C74.3299 626.016 74.6024 624.451 74.6024 622.345C74.6024 620.557 74.4277 619.172 74.0784 618.188L69.4247 627.478C69.9278 628.198 70.6196 628.558 71.5 628.558Z" fill="url(#paint39_linear_175_1884)" fill-opacity="0.6"/>
<path d="M72.7577 652.143H75.8392V653.245H67.8525V652.143H71.4162V640.464L68.0202 642.48L67.4333 641.544L71.6258 638.967H72.7577V652.143Z" fill="url(#paint40_linear_175_1884)" fill-opacity="0.6"/>
<path d="M71.5 662.511C72.9953 662.511 74.1273 663.141 74.8959 664.402C75.6785 665.649 76.0698 667.464 76.0698 669.847C76.0698 672.23 75.6785 674.052 74.8959 675.312C74.1273 676.573 72.9953 677.204 71.5 677.204C70.0187 677.204 68.8867 676.573 68.1041 675.312C67.3215 674.052 66.9302 672.23 66.9302 669.847C66.9302 667.478 67.3215 665.663 68.1041 664.402C68.8867 663.141 70.0187 662.511 71.5 662.511ZM68.4185 669.847C68.4185 671.537 68.5723 672.86 68.8797 673.816L73.5334 664.61C73.0442 663.958 72.3664 663.633 71.5 663.633C70.5357 663.633 69.7811 664.145 69.2361 665.171C68.691 666.182 68.4185 667.741 68.4185 669.847ZM71.5 676.061C72.4782 676.061 73.2399 675.555 73.7849 674.543C74.3299 673.518 74.6024 671.953 74.6024 669.847C74.6024 668.059 74.4277 666.674 74.0784 665.69L69.4247 674.98C69.9278 675.7 70.6196 676.061 71.5 676.061Z" fill="url(#paint41_linear_175_1884)" fill-opacity="0.6"/>
<path d="M110.43 448.751C111.926 448.751 113.057 449.381 113.826 450.642C114.609 451.889 115 453.704 115 456.087C115 458.47 114.609 460.292 113.826 461.553C113.057 462.814 111.926 463.444 110.43 463.444C108.949 463.444 107.817 462.814 107.034 461.553C106.252 460.292 105.86 458.47 105.86 456.087C105.86 453.718 106.252 451.903 107.034 450.642C107.817 449.381 108.949 448.751 110.43 448.751ZM107.349 456.087C107.349 457.777 107.502 459.101 107.81 460.057L112.464 450.85C111.974 450.199 111.297 449.873 110.43 449.873C109.466 449.873 108.711 450.386 108.166 451.411C107.621 452.423 107.349 453.981 107.349 456.087ZM110.43 462.301C111.408 462.301 112.17 461.795 112.715 460.784C113.26 459.759 113.533 458.193 113.533 456.087C113.533 454.3 113.358 452.914 113.009 451.931L108.355 461.22C108.858 461.941 109.55 462.301 110.43 462.301Z" fill="url(#paint42_linear_175_1884)" fill-opacity="0.6"/>
<path d="M111.688 485.886H114.769V486.987H106.783V485.886H110.346V474.206L106.95 476.222L106.363 475.287L110.556 472.71H111.688V485.886Z" fill="url(#paint43_linear_175_1884)" fill-opacity="0.6"/>
<path d="M111.688 509.637H114.769V510.738H106.783V509.637H110.346V497.957L106.95 499.973L106.363 499.038L110.556 496.461H111.688V509.637Z" fill="url(#paint44_linear_175_1884)" fill-opacity="0.6"/>
<path d="M110.43 520.004C111.926 520.004 113.057 520.635 113.826 521.895C114.609 523.142 115 524.957 115 527.34C115 529.723 114.609 531.545 113.826 532.806C113.057 534.067 111.926 534.697 110.43 534.697C108.949 534.697 107.817 534.067 107.034 532.806C106.252 531.545 105.86 529.723 105.86 527.34C105.86 524.971 106.252 523.156 107.034 521.895C107.817 520.635 108.949 520.004 110.43 520.004ZM107.349 527.34C107.349 529.031 107.502 530.354 107.81 531.31L112.464 522.103C111.974 521.452 111.297 521.126 110.43 521.126C109.466 521.126 108.711 521.639 108.166 522.664C107.621 523.676 107.349 525.234 107.349 527.34ZM110.43 533.554C111.408 533.554 112.17 533.049 112.715 532.037C113.26 531.012 113.533 529.446 113.533 527.34C113.533 525.553 113.358 524.168 113.009 523.184L108.355 532.474C108.858 533.194 109.55 533.554 110.43 533.554Z" fill="url(#paint45_linear_175_1884)" fill-opacity="0.6"/>
<path d="M110.43 543.755C111.926 543.755 113.057 544.386 113.826 545.646C114.609 546.893 115 548.708 115 551.091C115 553.474 114.609 555.296 113.826 556.557C113.057 557.818 111.926 558.448 110.43 558.448C108.949 558.448 107.817 557.818 107.034 556.557C106.252 555.296 105.86 553.474 105.86 551.091C105.86 548.722 106.252 546.907 107.034 545.646C107.817 544.386 108.949 543.755 110.43 543.755ZM107.349 551.091C107.349 552.782 107.502 554.105 107.81 555.061L112.464 545.854C111.974 545.203 111.297 544.878 110.43 544.878C109.466 544.878 108.711 545.39 108.166 546.415C107.621 547.427 107.349 548.985 107.349 551.091ZM110.43 557.305C111.408 557.305 112.17 556.8 112.715 555.788C113.26 554.763 113.533 553.197 113.533 551.091C113.533 549.304 113.358 547.919 113.009 546.935L108.355 556.225C108.858 556.945 109.55 557.305 110.43 557.305Z" fill="url(#paint46_linear_175_1884)" fill-opacity="0.6"/>
<g opacity="0.6">
<path d="M938.93 125C940.356 125 941.436 125.605 942.17 126.815C942.916 128.011 943.29 129.753 943.29 132.04C943.29 134.327 942.916 136.075 942.17 137.285C941.436 138.495 940.356 139.1 938.93 139.1C937.517 139.1 936.437 138.495 935.69 137.285C934.943 136.075 934.57 134.327 934.57 132.04C934.57 129.767 934.943 128.025 935.69 126.815C936.437 125.605 937.517 125 938.93 125ZM935.99 132.04C935.99 133.662 936.137 134.932 936.43 135.849L940.87 127.014C940.403 126.389 939.756 126.077 938.93 126.077C938.01 126.077 937.29 126.569 936.77 127.553C936.25 128.523 935.99 130.019 935.99 132.04ZM938.93 138.003C939.863 138.003 940.59 137.518 941.11 136.547C941.63 135.564 941.89 134.061 941.89 132.04C941.89 130.325 941.723 128.995 941.39 128.051L936.95 136.966C937.43 137.658 938.09 138.003 938.93 138.003Z" fill="url(#paint47_linear_175_1884)"/>
<path d="M940.13 160.637H943.07V161.694H935.45V160.637H938.85V149.428L935.61 151.363L935.05 150.465L939.05 147.992H940.13V160.637Z" fill="url(#paint48_linear_175_1884)"/>
<path d="M938.93 170.586C940.356 170.586 941.436 171.191 942.17 172.4C942.916 173.597 943.29 175.339 943.29 177.626C943.29 179.913 942.916 181.661 942.17 182.871C941.436 184.081 940.356 184.686 938.93 184.686C937.517 184.686 936.437 184.081 935.69 182.871C934.943 181.661 934.57 179.913 934.57 177.626C934.57 175.352 934.943 173.61 935.69 172.4C936.437 171.191 937.517 170.586 938.93 170.586ZM935.99 177.626C935.99 179.248 936.137 180.518 936.43 181.435L940.87 172.6C940.403 171.975 939.756 171.663 938.93 171.663C938.01 171.663 937.29 172.155 936.77 173.138C936.25 174.109 935.99 175.605 935.99 177.626ZM938.93 183.589C939.863 183.589 940.59 183.104 941.11 182.133C941.63 181.149 941.89 179.647 941.89 177.626C941.89 175.911 941.723 174.581 941.39 173.637L936.95 182.552C937.43 183.243 938.09 183.589 938.93 183.589Z" fill="url(#paint49_linear_175_1884)"/>
<path d="M940.13 206.222H943.07V207.279H935.45V206.222H938.85V195.014L935.61 196.948L935.05 196.051L939.05 193.578H940.13V206.222Z" fill="url(#paint50_linear_175_1884)"/>
<path d="M940.13 229.015H943.07V230.072H935.45V229.015H938.85V217.807L935.61 219.741L935.05 218.844L939.05 216.371H940.13V229.015Z" fill="url(#paint51_linear_175_1884)"/>
<path d="M938.93 238.964C940.356 238.964 941.436 239.569 942.17 240.779C942.916 241.976 943.29 243.717 943.29 246.004C943.29 248.291 942.916 250.039 942.17 251.249C941.436 252.459 940.356 253.064 938.93 253.064C937.517 253.064 936.437 252.459 935.69 251.249C934.943 250.039 934.57 248.291 934.57 246.004C934.57 243.731 934.943 241.989 935.69 240.779C936.437 239.569 937.517 238.964 938.93 238.964ZM935.99 246.004C935.99 247.626 936.137 248.896 936.43 249.813L940.87 240.978C940.403 240.353 939.756 240.041 938.93 240.041C938.01 240.041 937.29 240.533 936.77 241.517C936.25 242.487 935.99 243.983 935.99 246.004ZM938.93 251.967C939.863 251.967 940.59 251.482 941.11 250.511C941.63 249.528 941.89 248.025 941.89 246.004C941.89 244.289 941.723 242.959 941.39 242.015L936.95 250.93C937.43 251.622 938.09 251.967 938.93 251.967Z" fill="url(#paint52_linear_175_1884)"/>
<path d="M940.13 274.601H943.07V275.658H935.45V274.601H938.85V263.392L935.61 265.327L935.05 264.429L939.05 261.956H940.13V274.601Z" fill="url(#paint53_linear_175_1884)"/>
<path d="M938.93 284.55C940.356 284.55 941.436 285.155 942.17 286.365C942.916 287.561 943.29 289.303 943.29 291.59C943.29 293.877 942.916 295.625 942.17 296.835C941.436 298.045 940.356 298.65 938.93 298.65C937.517 298.65 936.437 298.045 935.69 296.835C934.943 295.625 934.57 293.877 934.57 291.59C934.57 289.316 934.943 287.574 935.69 286.365C936.437 285.155 937.517 284.55 938.93 284.55ZM935.99 291.59C935.99 293.212 936.137 294.482 936.43 295.399L940.87 286.564C940.403 285.939 939.756 285.627 938.93 285.627C938.01 285.627 937.29 286.119 936.77 287.102C936.25 288.073 935.99 289.569 935.99 291.59ZM938.93 297.553C939.863 297.553 940.59 297.068 941.11 296.097C941.63 295.113 941.89 293.611 941.89 291.59C941.89 289.875 941.723 288.545 941.39 287.601L936.95 296.516C937.43 297.207 938.09 297.553 938.93 297.553Z" fill="url(#paint54_linear_175_1884)"/>
<path d="M938.93 307.342C940.356 307.342 941.436 307.947 942.17 309.157C942.916 310.354 943.29 312.096 943.29 314.383C943.29 316.669 942.916 318.418 942.17 319.628C941.436 320.838 940.356 321.443 938.93 321.443C937.517 321.443 936.437 320.838 935.69 319.628C934.943 318.418 934.57 316.669 934.57 314.383C934.57 312.109 934.943 310.367 935.69 309.157C936.437 307.947 937.517 307.342 938.93 307.342ZM935.99 314.383C935.99 316.005 936.137 317.274 936.43 318.192L940.87 309.357C940.403 308.732 939.756 308.419 938.93 308.419C938.01 308.419 937.29 308.911 936.77 309.895C936.25 310.866 935.99 312.362 935.99 314.383ZM938.93 320.346C939.863 320.346 940.59 319.86 941.11 318.89C941.63 317.906 941.89 316.404 941.89 314.383C941.89 312.667 941.723 311.338 941.39 310.394L936.95 319.309C937.43 320 938.09 320.346 938.93 320.346Z" fill="url(#paint55_linear_175_1884)"/>
<path d="M940.13 342.979H943.07V344.036H935.45V342.979H938.85V331.771L935.61 333.705L935.05 332.808L939.05 330.335H940.13V342.979Z" fill="url(#paint56_linear_175_1884)"/>
<path d="M938.93 352.928C940.356 352.928 941.436 353.533 942.17 354.743C942.916 355.94 943.29 357.681 943.29 359.968C943.29 362.255 942.916 364.003 942.17 365.213C941.436 366.423 940.356 367.028 938.93 367.028C937.517 367.028 936.437 366.423 935.69 365.213C934.943 364.003 934.57 362.255 934.57 359.968C934.57 357.695 934.943 355.953 935.69 354.743C936.437 353.533 937.517 352.928 938.93 352.928ZM935.99 359.968C935.99 361.59 936.137 362.86 936.43 363.777L940.87 354.942C940.403 354.317 939.756 354.005 938.93 354.005C938.01 354.005 937.29 354.497 936.77 355.481C936.25 356.451 935.99 357.947 935.99 359.968ZM938.93 365.931C939.863 365.931 940.59 365.446 941.11 364.475C941.63 363.492 941.89 361.989 941.89 359.968C941.89 358.253 941.723 356.923 941.39 355.979L936.95 364.894C937.43 365.586 938.09 365.931 938.93 365.931Z" fill="url(#paint57_linear_175_1884)"/>
<path d="M940.13 388.565H943.07V389.622H935.45V388.565H938.85V377.356L935.61 379.291L935.05 378.393L939.05 375.92H940.13V388.565Z" fill="url(#paint58_linear_175_1884)"/>
<path d="M940.13 411.357H943.07V412.414H935.45V411.357H938.85V400.149L935.61 402.084L935.05 401.186L939.05 398.713H940.13V411.357Z" fill="url(#paint59_linear_175_1884)"/>
<path d="M976.07 170.586C977.497 170.586 978.577 171.191 979.31 172.4C980.057 173.597 980.43 175.339 980.43 177.626C980.43 179.913 980.057 181.661 979.31 182.871C978.577 184.081 977.497 184.686 976.07 184.686C974.657 184.686 973.577 184.081 972.83 182.871C972.084 181.661 971.71 179.913 971.71 177.626C971.71 175.352 972.084 173.61 972.83 172.4C973.577 171.191 974.657 170.586 976.07 170.586ZM973.13 177.626C973.13 179.248 973.277 180.518 973.57 181.435L978.01 172.6C977.543 171.975 976.897 171.663 976.07 171.663C975.15 171.663 974.43 172.155 973.91 173.138C973.39 174.109 973.13 175.605 973.13 177.626ZM976.07 183.589C977.003 183.589 977.73 183.104 978.25 182.133C978.77 181.149 979.03 179.647 979.03 177.626C979.03 175.911 978.863 174.581 978.53 173.637L974.09 182.552C974.57 183.243 975.23 183.589 976.07 183.589Z" fill="url(#paint60_linear_175_1884)"/>
<path d="M977.27 206.222H980.21V207.279H972.59V206.222H975.99V195.014L972.75 196.948L972.19 196.051L976.19 193.578H977.27V206.222Z" fill="url(#paint61_linear_175_1884)"/>
<path d="M976.07 216.171C977.497 216.171 978.577 216.776 979.31 217.986C980.057 219.183 980.43 220.924 980.43 223.211C980.43 225.498 980.057 227.247 979.31 228.457C978.577 229.666 977.497 230.271 976.07 230.271C974.657 230.271 973.577 229.666 972.83 228.457C972.084 227.247 971.71 225.498 971.71 223.211C971.71 220.938 972.084 219.196 972.83 217.986C973.577 216.776 974.657 216.171 976.07 216.171ZM973.13 223.211C973.13 224.833 973.277 226.103 973.57 227.021L978.01 218.186C977.543 217.561 976.897 217.248 976.07 217.248C975.15 217.248 974.43 217.74 973.91 218.724C973.39 219.695 973.13 221.19 973.13 223.211ZM976.07 229.174C977.003 229.174 977.73 228.689 978.25 227.719C978.77 226.735 979.03 225.232 979.03 223.211C979.03 221.496 978.863 220.167 978.53 219.223L974.09 228.137C974.57 228.829 975.23 229.174 976.07 229.174Z" fill="url(#paint62_linear_175_1884)"/>
<path d="M976.07 238.964C977.497 238.964 978.577 239.569 979.31 240.779C980.057 241.976 980.43 243.717 980.43 246.004C980.43 248.291 980.057 250.039 979.31 251.249C978.577 252.459 977.497 253.064 976.07 253.064C974.657 253.064 973.577 252.459 972.83 251.249C972.084 250.039 971.71 248.291 971.71 246.004C971.71 243.731 972.084 241.989 972.83 240.779C973.577 239.569 974.657 238.964 976.07 238.964ZM973.13 246.004C973.13 247.626 973.277 248.896 973.57 249.813L978.01 240.978C977.543 240.353 976.897 240.041 976.07 240.041C975.15 240.041 974.43 240.533 973.91 241.517C973.39 242.487 973.13 243.983 973.13 246.004ZM976.07 251.967C977.003 251.967 977.73 251.482 978.25 250.511C978.77 249.528 979.03 248.025 979.03 246.004C979.03 244.289 978.863 242.959 978.53 242.015L974.09 250.93C974.57 251.622 975.23 251.967 976.07 251.967Z" fill="url(#paint63_linear_175_1884)"/>
<path d="M977.27 274.601H980.21V275.658H972.59V274.601H975.99V263.392L972.75 265.327L972.19 264.429L976.19 261.956H977.27V274.601Z" fill="url(#paint64_linear_175_1884)"/>
<path d="M976.07 284.55C977.497 284.55 978.577 285.155 979.31 286.365C980.057 287.561 980.43 289.303 980.43 291.59C980.43 293.877 980.057 295.625 979.31 296.835C978.577 298.045 977.497 298.65 976.07 298.65C974.657 298.65 973.577 298.045 972.83 296.835C972.084 295.625 971.71 293.877 971.71 291.59C971.71 289.316 972.084 287.574 972.83 286.365C973.577 285.155 974.657 284.55 976.07 284.55ZM973.13 291.59C973.13 293.212 973.277 294.482 973.57 295.399L978.01 286.564C977.543 285.939 976.897 285.627 976.07 285.627C975.15 285.627 974.43 286.119 973.91 287.102C973.39 288.073 973.13 289.569 973.13 291.59ZM976.07 297.553C977.003 297.553 977.73 297.068 978.25 296.097C978.77 295.113 979.03 293.611 979.03 291.59C979.03 289.875 978.863 288.545 978.53 287.601L974.09 296.516C974.57 297.207 975.23 297.553 976.07 297.553Z" fill="url(#paint65_linear_175_1884)"/>
<path d="M977.27 320.186H980.21V321.243H972.59V320.186H975.99V308.978L972.75 310.912L972.19 310.015L976.19 307.542H977.27V320.186Z" fill="url(#paint66_linear_175_1884)"/>
<path d="M976.07 330.135C977.497 330.135 978.577 330.74 979.31 331.95C980.057 333.147 980.43 334.888 980.43 337.175C980.43 339.462 980.057 341.211 979.31 342.421C978.577 343.63 977.497 344.235 976.07 344.235C974.657 344.235 973.577 343.63 972.83 342.421C972.084 341.211 971.71 339.462 971.71 337.175C971.71 334.902 972.084 333.16 972.83 331.95C973.577 330.74 974.657 330.135 976.07 330.135ZM973.13 337.175C973.13 338.797 973.277 340.067 973.57 340.985L978.01 332.15C977.543 331.525 976.897 331.212 976.07 331.212C975.15 331.212 974.43 331.704 973.91 332.688C973.39 333.659 973.13 335.154 973.13 337.175ZM976.07 343.139C977.003 343.139 977.73 342.653 978.25 341.683C978.77 340.699 979.03 339.196 979.03 337.175C979.03 335.46 978.863 334.131 978.53 333.187L974.09 342.101C974.57 342.793 975.23 343.139 976.07 343.139Z" fill="url(#paint67_linear_175_1884)"/>
<path d="M976.07 352.928C977.497 352.928 978.577 353.533 979.31 354.743C980.057 355.94 980.43 357.681 980.43 359.968C980.43 362.255 980.057 364.003 979.31 365.213C978.577 366.423 977.497 367.028 976.07 367.028C974.657 367.028 973.577 366.423 972.83 365.213C972.084 364.003 971.71 362.255 971.71 359.968C971.71 357.695 972.084 355.953 972.83 354.743C973.577 353.533 974.657 352.928 976.07 352.928ZM973.13 359.968C973.13 361.59 973.277 362.86 973.57 363.777L978.01 354.942C977.543 354.317 976.897 354.005 976.07 354.005C975.15 354.005 974.43 354.497 973.91 355.481C973.39 356.451 973.13 357.947 973.13 359.968ZM976.07 365.931C977.003 365.931 977.73 365.446 978.25 364.475C978.77 363.492 979.03 361.989 979.03 359.968C979.03 358.253 978.863 356.923 978.53 355.979L974.09 364.894C974.57 365.586 975.23 365.931 976.07 365.931Z" fill="url(#paint68_linear_175_1884)"/>
<path d="M977.27 388.565H980.21V389.622H972.59V388.565H975.99V377.356L972.75 379.291L972.19 378.393L976.19 375.92H977.27V388.565Z" fill="url(#paint69_linear_175_1884)"/>
<path d="M976.07 398.514C977.497 398.514 978.577 399.119 979.31 400.329C980.057 401.525 980.43 403.267 980.43 405.554C980.43 407.841 980.057 409.589 979.31 410.799C978.577 412.009 977.497 412.614 976.07 412.614C974.657 412.614 973.577 412.009 972.83 410.799C972.084 409.589 971.71 407.841 971.71 405.554C971.71 403.28 972.084 401.538 972.83 400.329C973.577 399.119 974.657 398.514 976.07 398.514ZM973.13 405.554C973.13 407.176 973.277 408.446 973.57 409.363L978.01 400.528C977.543 399.903 976.897 399.591 976.07 399.591C975.15 399.591 974.43 400.083 973.91 401.066C973.39 402.037 973.13 403.533 973.13 405.554ZM976.07 411.517C977.003 411.517 977.73 411.032 978.25 410.061C978.77 409.077 979.03 407.575 979.03 405.554C979.03 403.839 978.863 402.509 978.53 401.565L974.09 410.48C974.57 411.171 975.23 411.517 976.07 411.517Z" fill="url(#paint70_linear_175_1884)"/>
<path d="M977.27 434.15H980.21V435.207H972.59V434.15H975.99V422.942L972.75 424.876L972.19 423.979L976.19 421.506H977.27V434.15Z" fill="url(#paint71_linear_175_1884)"/>
<path d="M977.27 456.943H980.21V458H972.59V456.943H975.99V445.735L972.75 447.669L972.19 446.772L976.19 444.299H977.27V456.943Z" fill="url(#paint72_linear_175_1884)"/>
<path d="M920.36 193.378C921.786 193.378 922.866 193.983 923.599 195.193C924.346 196.39 924.719 198.132 924.719 200.419C924.719 202.705 924.346 204.454 923.599 205.664C922.866 206.874 921.786 207.479 920.36 207.479C918.946 207.479 917.867 206.874 917.12 205.664C916.373 204.454 916 202.705 916 200.419C916 198.145 916.373 196.403 917.12 195.193C917.867 193.983 918.946 193.378 920.36 193.378ZM917.42 200.419C917.42 202.041 917.567 203.31 917.86 204.228L922.3 195.393C921.833 194.768 921.186 194.455 920.36 194.455C919.44 194.455 918.72 194.947 918.2 195.931C917.68 196.902 917.42 198.398 917.42 200.419ZM920.36 206.382C921.293 206.382 922.02 205.896 922.54 204.926C923.06 203.942 923.319 202.439 923.319 200.419C923.319 198.703 923.153 197.374 922.82 196.43L918.38 205.345C918.86 206.036 919.52 206.382 920.36 206.382Z" fill="url(#paint73_linear_175_1884)"/>
<path d="M920.36 216.171C921.786 216.171 922.866 216.776 923.599 217.986C924.346 219.183 924.719 220.924 924.719 223.211C924.719 225.498 924.346 227.247 923.599 228.457C922.866 229.666 921.786 230.271 920.36 230.271C918.946 230.271 917.867 229.666 917.12 228.457C916.373 227.247 916 225.498 916 223.211C916 220.938 916.373 219.196 917.12 217.986C917.867 216.776 918.946 216.171 920.36 216.171ZM917.42 223.211C917.42 224.833 917.567 226.103 917.86 227.021L922.3 218.186C921.833 217.561 921.186 217.248 920.36 217.248C919.44 217.248 918.72 217.74 918.2 218.724C917.68 219.695 917.42 221.19 917.42 223.211ZM920.36 229.174C921.293 229.174 922.02 228.689 922.54 227.719C923.06 226.735 923.319 225.232 923.319 223.211C923.319 221.496 923.153 220.167 922.82 219.223L918.38 228.137C918.86 228.829 919.52 229.174 920.36 229.174Z" fill="url(#paint74_linear_175_1884)"/>
<path d="M921.56 251.808H924.499V252.865H916.88V251.808H920.28V240.599L917.04 242.534L916.48 241.636L920.48 239.163H921.56V251.808Z" fill="url(#paint75_linear_175_1884)"/>
<path d="M920.36 261.757C921.786 261.757 922.866 262.362 923.599 263.572C924.346 264.768 924.719 266.51 924.719 268.797C924.719 271.084 924.346 272.832 923.599 274.042C922.866 275.252 921.786 275.857 920.36 275.857C918.946 275.857 917.867 275.252 917.12 274.042C916.373 272.832 916 271.084 916 268.797C916 266.523 916.373 264.782 917.12 263.572C917.867 262.362 918.946 261.757 920.36 261.757ZM917.42 268.797C917.42 270.419 917.567 271.689 917.86 272.606L922.3 263.771C921.833 263.146 921.186 262.834 920.36 262.834C919.44 262.834 918.72 263.326 918.2 264.31C917.68 265.28 917.42 266.776 917.42 268.797ZM920.36 274.76C921.293 274.76 922.02 274.275 922.54 273.304C923.06 272.32 923.319 270.818 923.319 268.797C923.319 267.082 923.153 265.752 922.82 264.808L918.38 273.723C918.86 274.414 919.52 274.76 920.36 274.76Z" fill="url(#paint76_linear_175_1884)"/>
<path d="M921.56 297.393H924.499V298.45H916.88V297.393H920.28V286.185L917.04 288.12L916.48 287.222L920.48 284.749H921.56V297.393Z" fill="url(#paint77_linear_175_1884)"/>
<path d="M921.56 320.186H924.499V321.243H916.88V320.186H920.28V308.978L917.04 310.912L916.48 310.015L920.48 307.542H921.56V320.186Z" fill="url(#paint78_linear_175_1884)"/>
<path d="M958.7 160.637H961.64V161.694H954.02V160.637H957.42V149.428L954.18 151.363L953.62 150.465L957.62 147.992H958.7V160.637Z" fill="url(#paint79_linear_175_1884)"/>
<path d="M957.5 170.586C958.927 170.586 960.006 171.191 960.74 172.4C961.486 173.597 961.86 175.339 961.86 177.626C961.86 179.913 961.486 181.661 960.74 182.871C960.006 184.081 958.927 184.686 957.5 184.686C956.087 184.686 955.007 184.081 954.26 182.871C953.514 181.661 953.14 179.913 953.14 177.626C953.14 175.352 953.514 173.61 954.26 172.4C955.007 171.191 956.087 170.586 957.5 170.586ZM954.56 177.626C954.56 179.248 954.707 180.518 955 181.435L959.44 172.6C958.973 171.975 958.327 171.663 957.5 171.663C956.58 171.663 955.86 172.155 955.34 173.138C954.82 174.109 954.56 175.605 954.56 177.626ZM957.5 183.589C958.433 183.589 959.16 183.104 959.68 182.133C960.2 181.149 960.46 179.647 960.46 177.626C960.46 175.911 960.293 174.581 959.96 173.637L955.52 182.552C956 183.243 956.66 183.589 957.5 183.589Z" fill="url(#paint80_linear_175_1884)"/>
<path d="M958.7 206.222H961.64V207.279H954.02V206.222H957.42V195.014L954.18 196.948L953.62 196.051L957.62 193.578H958.7V206.222Z" fill="url(#paint81_linear_175_1884)"/>
<path d="M958.7 229.015H961.64V230.072H954.02V229.015H957.42V217.807L954.18 219.741L953.62 218.844L957.62 216.371H958.7V229.015Z" fill="url(#paint82_linear_175_1884)"/>
<path d="M957.5 238.964C958.927 238.964 960.006 239.569 960.74 240.779C961.486 241.976 961.86 243.717 961.86 246.004C961.86 248.291 961.486 250.039 960.74 251.249C960.006 252.459 958.927 253.064 957.5 253.064C956.087 253.064 955.007 252.459 954.26 251.249C953.514 250.039 953.14 248.291 953.14 246.004C953.14 243.731 953.514 241.989 954.26 240.779C955.007 239.569 956.087 238.964 957.5 238.964ZM954.56 246.004C954.56 247.626 954.707 248.896 955 249.813L959.44 240.978C958.973 240.353 958.327 240.041 957.5 240.041C956.58 240.041 955.86 240.533 955.34 241.517C954.82 242.487 954.56 243.983 954.56 246.004ZM957.5 251.967C958.433 251.967 959.16 251.482 959.68 250.511C960.2 249.528 960.46 248.025 960.46 246.004C960.46 244.289 960.293 242.959 959.96 242.015L955.52 250.93C956 251.622 956.66 251.967 957.5 251.967Z" fill="url(#paint83_linear_175_1884)"/>
<path d="M958.7 274.601H961.64V275.658H954.02V274.601H957.42V263.392L954.18 265.327L953.62 264.429L957.62 261.956H958.7V274.601Z" fill="url(#paint84_linear_175_1884)"/>
<path d="M958.7 297.393H961.64V298.45H954.02V297.393H957.42V286.185L954.18 288.12L953.62 287.222L957.62 284.749H958.7V297.393Z" fill="url(#paint85_linear_175_1884)"/>
<path d="M957.5 307.342C958.927 307.342 960.006 307.947 960.74 309.157C961.486 310.354 961.86 312.096 961.86 314.383C961.86 316.669 961.486 318.418 960.74 319.628C960.006 320.838 958.927 321.443 957.5 321.443C956.087 321.443 955.007 320.838 954.26 319.628C953.514 318.418 953.14 316.669 953.14 314.383C953.14 312.109 953.514 310.367 954.26 309.157C955.007 307.947 956.087 307.342 957.5 307.342ZM954.56 314.383C954.56 316.005 954.707 317.274 955 318.192L959.44 309.357C958.973 308.732 958.327 308.419 957.5 308.419C956.58 308.419 955.86 308.911 955.34 309.895C954.82 310.866 954.56 312.362 954.56 314.383ZM957.5 320.346C958.433 320.346 959.16 319.86 959.68 318.89C960.2 317.906 960.46 316.404 960.46 314.383C960.46 312.667 960.293 311.338 959.96 310.394L955.52 319.309C956 320 956.66 320.346 957.5 320.346Z" fill="url(#paint86_linear_175_1884)"/>
<path d="M958.7 342.979H961.64V344.036H954.02V342.979H957.42V331.771L954.18 333.705L953.62 332.808L957.62 330.335H958.7V342.979Z" fill="url(#paint87_linear_175_1884)"/>
<path d="M957.5 352.928C958.927 352.928 960.006 353.533 960.74 354.743C961.486 355.94 961.86 357.681 961.86 359.968C961.86 362.255 961.486 364.003 960.74 365.213C960.006 366.423 958.927 367.028 957.5 367.028C956.087 367.028 955.007 366.423 954.26 365.213C953.514 364.003 953.14 362.255 953.14 359.968C953.14 357.695 953.514 355.953 954.26 354.743C955.007 353.533 956.087 352.928 957.5 352.928ZM954.56 359.968C954.56 361.59 954.707 362.86 955 363.777L959.44 354.942C958.973 354.317 958.327 354.005 957.5 354.005C956.58 354.005 955.86 354.497 955.34 355.481C954.82 356.451 954.56 357.947 954.56 359.968ZM957.5 365.931C958.433 365.931 959.16 365.446 959.68 364.475C960.2 363.492 960.46 361.989 960.46 359.968C960.46 358.253 960.293 356.923 959.96 355.979L955.52 364.894C956 365.586 956.66 365.931 957.5 365.931Z" fill="url(#paint88_linear_175_1884)"/>
<path d="M994.64 147.793C996.067 147.793 997.147 148.398 997.88 149.608C998.627 150.804 999 152.546 999 154.833C999 157.12 998.627 158.868 997.88 160.078C997.147 161.288 996.067 161.893 994.64 161.893C993.227 161.893 992.147 161.288 991.401 160.078C990.654 158.868 990.281 157.12 990.281 154.833C990.281 152.559 990.654 150.818 991.401 149.608C992.147 148.398 993.227 147.793 994.64 147.793ZM991.701 154.833C991.701 156.455 991.847 157.725 992.14 158.642L996.58 149.807C996.114 149.182 995.467 148.87 994.64 148.87C993.72 148.87 993 149.362 992.48 150.346C991.96 151.316 991.701 152.812 991.701 154.833ZM994.64 160.796C995.574 160.796 996.3 160.311 996.82 159.34C997.34 158.356 997.6 156.854 997.6 154.833C997.6 153.118 997.433 151.788 997.1 150.844L992.66 159.759C993.14 160.45 993.8 160.796 994.64 160.796Z" fill="url(#paint89_linear_175_1884)"/>
<path d="M995.84 183.429H998.78V184.486H991.161V183.429H994.56V172.221L991.321 174.156L990.761 173.258L994.76 170.785H995.84V183.429Z" fill="url(#paint90_linear_175_1884)"/>
<path d="M995.84 206.222H998.78V207.279H991.161V206.222H994.56V195.014L991.321 196.948L990.761 196.051L994.76 193.578H995.84V206.222Z" fill="url(#paint91_linear_175_1884)"/>
<path d="M994.64 216.171C996.067 216.171 997.147 216.776 997.88 217.986C998.627 219.183 999 220.924 999 223.211C999 225.498 998.627 227.247 997.88 228.457C997.147 229.666 996.067 230.271 994.64 230.271C993.227 230.271 992.147 229.666 991.401 228.457C990.654 227.247 990.281 225.498 990.281 223.211C990.281 220.938 990.654 219.196 991.401 217.986C992.147 216.776 993.227 216.171 994.64 216.171ZM991.701 223.211C991.701 224.833 991.847 226.103 992.14 227.021L996.58 218.186C996.114 217.561 995.467 217.248 994.64 217.248C993.72 217.248 993 217.74 992.48 218.724C991.96 219.695 991.701 221.19 991.701 223.211ZM994.64 229.174C995.574 229.174 996.3 228.689 996.82 227.719C997.34 226.735 997.6 225.232 997.6 223.211C997.6 221.496 997.433 220.167 997.1 219.223L992.66 228.137C993.14 228.829 993.8 229.174 994.64 229.174Z" fill="url(#paint92_linear_175_1884)"/>
<path d="M994.64 238.964C996.067 238.964 997.147 239.569 997.88 240.779C998.627 241.976 999 243.717 999 246.004C999 248.291 998.627 250.039 997.88 251.249C997.147 252.459 996.067 253.064 994.64 253.064C993.227 253.064 992.147 252.459 991.401 251.249C990.654 250.039 990.281 248.291 990.281 246.004C990.281 243.731 990.654 241.989 991.401 240.779C992.147 239.569 993.227 238.964 994.64 238.964ZM991.701 246.004C991.701 247.626 991.847 248.896 992.14 249.813L996.58 240.978C996.114 240.353 995.467 240.041 994.64 240.041C993.72 240.041 993 240.533 992.48 241.517C991.96 242.487 991.701 243.983 991.701 246.004ZM994.64 251.967C995.574 251.967 996.3 251.482 996.82 250.511C997.34 249.528 997.6 248.025 997.6 246.004C997.6 244.289 997.433 242.959 997.1 242.015L992.66 250.93C993.14 251.622 993.8 251.967 994.64 251.967Z" fill="url(#paint93_linear_175_1884)"/>
</g>
</g>
<defs>
<filter id="filter0_f_175_1884" x="-539.19" y="-561.19" width="2141.38" height="1500.38" filterUnits="userSpaceOnUse" color-interpolation-filters="sRGB">
<feFlood flood-opacity="0" result="BackgroundImageFix"/>
<feBlend mode="normal" in="SourceGraphic" in2="BackgroundImageFix" result="shape"/>
<feGaussianBlur stdDeviation="200.095" result="effect1_foregroundBlur_175_1884"/>
</filter>
<linearGradient id="paint0_linear_175_1884" x1="71.5" y1="425" x2="71.5" y2="736.381" gradientUnits="userSpaceOnUse">
<stop stop-color="#F7DD43"/>
<stop offset="1" stop-color="#F7DD43" stop-opacity="0"/>
</linearGradient>
<linearGradient id="paint1_linear_175_1884" x1="71.5" y1="425" x2="71.5" y2="736.381" gradientUnits="userSpaceOnUse">
<stop stop-color="#F7DD43"/>
<stop offset="1" stop-color="#F7DD43" stop-opacity="0"/>
</linearGradient>
<linearGradient id="paint2_linear_175_1884" x1="71.5" y1="425" x2="71.5" y2="736.381" gradientUnits="userSpaceOnUse">
<stop stop-color="#F7DD43"/>
<stop offset="1" stop-color="#F7DD43" stop-opacity="0"/>
</linearGradient>
<linearGradient id="paint3_linear_175_1884" x1="71.5" y1="425" x2="71.5" y2="736.381" gradientUnits="userSpaceOnUse">
<stop stop-color="#F7DD43"/>
<stop offset="1" stop-color="#F7DD43" stop-opacity="0"/>
</linearGradient>
<linearGradient id="paint4_linear_175_1884" x1="71.5" y1="425" x2="71.5" y2="736.381" gradientUnits="userSpaceOnUse">
<stop stop-color="#F7DD43"/>
<stop offset="1" stop-color="#F7DD43" stop-opacity="0"/>
</linearGradient>
<linearGradient id="paint5_linear_175_1884" x1="71.5" y1="425" x2="71.5" y2="736.381" gradientUnits="userSpaceOnUse">
<stop stop-color="#F7DD43"/>
<stop offset="1" stop-color="#F7DD43" stop-opacity="0"/>
</linearGradient>
<linearGradient id="paint6_linear_175_1884" x1="71.5" y1="425" x2="71.5" y2="736.381" gradientUnits="userSpaceOnUse">
<stop stop-color="#F7DD43"/>
<stop offset="1" stop-color="#F7DD43" stop-opacity="0"/>
</linearGradient>
<linearGradient id="paint7_linear_175_1884" x1="71.5" y1="425" x2="71.5" y2="736.381" gradientUnits="userSpaceOnUse">
<stop stop-color="#F7DD43"/>
<stop offset="1" stop-color="#F7DD43" stop-opacity="0"/>
</linearGradient>
<linearGradient id="paint8_linear_175_1884" x1="71.5" y1="425" x2="71.5" y2="736.381" gradientUnits="userSpaceOnUse">
<stop stop-color="#F7DD43"/>
<stop offset="1" stop-color="#F7DD43" stop-opacity="0"/>
</linearGradient>
<linearGradient id="paint9_linear_175_1884" x1="71.5" y1="425" x2="71.5" y2="736.381" gradientUnits="userSpaceOnUse">
<stop stop-color="#F7DD43"/>
<stop offset="1" stop-color="#F7DD43" stop-opacity="0"/>
</linearGradient>
<linearGradient id="paint10_linear_175_1884" x1="71.5" y1="425" x2="71.5" y2="736.381" gradientUnits="userSpaceOnUse">
<stop stop-color="#F7DD43"/>
<stop offset="1" stop-color="#F7DD43" stop-opacity="0"/>
</linearGradient>
<linearGradient id="paint11_linear_175_1884" x1="71.5" y1="425" x2="71.5" y2="736.381" gradientUnits="userSpaceOnUse">
<stop stop-color="#F7DD43"/>
<stop offset="1" stop-color="#F7DD43" stop-opacity="0"/>
</linearGradient>
<linearGradient id="paint12_linear_175_1884" x1="71.5" y1="425" x2="71.5" y2="736.381" gradientUnits="userSpaceOnUse">
<stop stop-color="#F7DD43"/>
<stop offset="1" stop-color="#F7DD43" stop-opacity="0"/>
</linearGradient>
<linearGradient id="paint13_linear_175_1884" x1="71.5" y1="425" x2="71.5" y2="736.381" gradientUnits="userSpaceOnUse">
<stop stop-color="#F7DD43"/>
<stop offset="1" stop-color="#F7DD43" stop-opacity="0"/>
</linearGradient>
<linearGradient id="paint14_linear_175_1884" x1="71.5" y1="425" x2="71.5" y2="736.381" gradientUnits="userSpaceOnUse">
<stop stop-color="#F7DD43"/>
<stop offset="1" stop-color="#F7DD43" stop-opacity="0"/>
</linearGradient>
<linearGradient id="paint15_linear_175_1884" x1="71.5" y1="425" x2="71.5" y2="736.381" gradientUnits="userSpaceOnUse">
<stop stop-color="#F7DD43"/>
<stop offset="1" stop-color="#F7DD43" stop-opacity="0"/>
</linearGradient>
<linearGradient id="paint16_linear_175_1884" x1="71.5" y1="425" x2="71.5" y2="736.381" gradientUnits="userSpaceOnUse">
<stop stop-color="#F7DD43"/>
<stop offset="1" stop-color="#F7DD43" stop-opacity="0"/>
</linearGradient>
<linearGradient id="paint17_linear_175_1884" x1="71.5" y1="425" x2="71.5" y2="736.381" gradientUnits="userSpaceOnUse">
<stop stop-color="#F7DD43"/>
<stop offset="1" stop-color="#F7DD43" stop-opacity="0"/>
</linearGradient>
<linearGradient id="paint18_linear_175_1884" x1="71.5" y1="425" x2="71.5" y2="736.381" gradientUnits="userSpaceOnUse">
<stop stop-color="#F7DD43"/>
<stop offset="1" stop-color="#F7DD43" stop-opacity="0"/>
</linearGradient>
<linearGradient id="paint19_linear_175_1884" x1="71.5" y1="425" x2="71.5" y2="736.381" gradientUnits="userSpaceOnUse">
<stop stop-color="#F7DD43"/>
<stop offset="1" stop-color="#F7DD43" stop-opacity="0"/>
</linearGradient>
<linearGradient id="paint20_linear_175_1884" x1="71.5" y1="425" x2="71.5" y2="736.381" gradientUnits="userSpaceOnUse">
<stop stop-color="#F7DD43"/>
<stop offset="1" stop-color="#F7DD43" stop-opacity="0"/>
</linearGradient>
<linearGradient id="paint21_linear_175_1884" x1="71.5" y1="425" x2="71.5" y2="736.381" gradientUnits="userSpaceOnUse">
<stop stop-color="#F7DD43"/>
<stop offset="1" stop-color="#F7DD43" stop-opacity="0"/>
</linearGradient>
<linearGradient id="paint22_linear_175_1884" x1="71.5" y1="425" x2="71.5" y2="736.381" gradientUnits="userSpaceOnUse">
<stop stop-color="#F7DD43"/>
<stop offset="1" stop-color="#F7DD43" stop-opacity="0"/>
</linearGradient>
<linearGradient id="paint23_linear_175_1884" x1="71.5" y1="425" x2="71.5" y2="736.381" gradientUnits="userSpaceOnUse">
<stop stop-color="#F7DD43"/>
<stop offset="1" stop-color="#F7DD43" stop-opacity="0"/>
</linearGradient>
<linearGradient id="paint24_linear_175_1884" x1="71.5" y1="425" x2="71.5" y2="736.381" gradientUnits="userSpaceOnUse">
<stop stop-color="#F7DD43"/>
<stop offset="1" stop-color="#F7DD43" stop-opacity="0"/>
</linearGradient>
<linearGradient id="paint25_linear_175_1884" x1="71.5" y1="425" x2="71.5" y2="736.381" gradientUnits="userSpaceOnUse">
<stop stop-color="#F7DD43"/>
<stop offset="1" stop-color="#F7DD43" stop-opacity="0"/>
</linearGradient>
<linearGradient id="paint26_linear_175_1884" x1="71.5" y1="425" x2="71.5" y2="736.381" gradientUnits="userSpaceOnUse">
<stop stop-color="#F7DD43"/>
<stop offset="1" stop-color="#F7DD43" stop-opacity="0"/>
</linearGradient>
<linearGradient id="paint27_linear_175_1884" x1="71.5" y1="425" x2="71.5" y2="736.381" gradientUnits="userSpaceOnUse">
<stop stop-color="#F7DD43"/>
<stop offset="1" stop-color="#F7DD43" stop-opacity="0"/>
</linearGradient>
<linearGradient id="paint28_linear_175_1884" x1="71.5" y1="425" x2="71.5" y2="736.381" gradientUnits="userSpaceOnUse">
<stop stop-color="#F7DD43"/>
<stop offset="1" stop-color="#F7DD43" stop-opacity="0"/>
</linearGradient>
<linearGradient id="paint29_linear_175_1884" x1="71.5" y1="425" x2="71.5" y2="736.381" gradientUnits="userSpaceOnUse">
<stop stop-color="#F7DD43"/>
<stop offset="1" stop-color="#F7DD43" stop-opacity="0"/>
</linearGradient>
<linearGradient id="paint30_linear_175_1884" x1="71.5" y1="425" x2="71.5" y2="736.381" gradientUnits="userSpaceOnUse">
<stop stop-color="#F7DD43"/>
<stop offset="1" stop-color="#F7DD43" stop-opacity="0"/>
</linearGradient>
<linearGradient id="paint31_linear_175_1884" x1="71.5" y1="425" x2="71.5" y2="736.381" gradientUnits="userSpaceOnUse">
<stop stop-color="#F7DD43"/>
<stop offset="1" stop-color="#F7DD43" stop-opacity="0"/>
</linearGradient>
<linearGradient id="paint32_linear_175_1884" x1="71.5" y1="425" x2="71.5" y2="736.381" gradientUnits="userSpaceOnUse">
<stop stop-color="#F7DD43"/>
<stop offset="1" stop-color="#F7DD43" stop-opacity="0"/>
</linearGradient>
<linearGradient id="paint33_linear_175_1884" x1="71.5" y1="425" x2="71.5" y2="736.381" gradientUnits="userSpaceOnUse">
<stop stop-color="#F7DD43"/>
<stop offset="1" stop-color="#F7DD43" stop-opacity="0"/>
</linearGradient>
<linearGradient id="paint34_linear_175_1884" x1="71.5" y1="425" x2="71.5" y2="736.381" gradientUnits="userSpaceOnUse">
<stop stop-color="#F7DD43"/>
<stop offset="1" stop-color="#F7DD43" stop-opacity="0"/>
</linearGradient>
<linearGradient id="paint35_linear_175_1884" x1="71.5" y1="425" x2="71.5" y2="736.381" gradientUnits="userSpaceOnUse">
<stop stop-color="#F7DD43"/>
<stop offset="1" stop-color="#F7DD43" stop-opacity="0"/>
</linearGradient>
<linearGradient id="paint36_linear_175_1884" x1="71.5" y1="425" x2="71.5" y2="736.381" gradientUnits="userSpaceOnUse">
<stop stop-color="#F7DD43"/>
<stop offset="1" stop-color="#F7DD43" stop-opacity="0"/>
</linearGradient>
<linearGradient id="paint37_linear_175_1884" x1="71.5" y1="425" x2="71.5" y2="736.381" gradientUnits="userSpaceOnUse">
<stop stop-color="#F7DD43"/>
<stop offset="1" stop-color="#F7DD43" stop-opacity="0"/>
</linearGradient>
<linearGradient id="paint38_linear_175_1884" x1="71.5" y1="425" x2="71.5" y2="736.381" gradientUnits="userSpaceOnUse">
<stop stop-color="#F7DD43"/>
<stop offset="1" stop-color="#F7DD43" stop-opacity="0"/>
</linearGradient>
<linearGradient id="paint39_linear_175_1884" x1="71.5" y1="425" x2="71.5" y2="736.381" gradientUnits="userSpaceOnUse">
<stop stop-color="#F7DD43"/>
<stop offset="1" stop-color="#F7DD43" stop-opacity="0"/>
</linearGradient>
<linearGradient id="paint40_linear_175_1884" x1="71.5" y1="425" x2="71.5" y2="736.381" gradientUnits="userSpaceOnUse">
<stop stop-color="#F7DD43"/>
<stop offset="1" stop-color="#F7DD43" stop-opacity="0"/>
</linearGradient>
<linearGradient id="paint41_linear_175_1884" x1="71.5" y1="425" x2="71.5" y2="736.381" gradientUnits="userSpaceOnUse">
<stop stop-color="#F7DD43"/>
<stop offset="1" stop-color="#F7DD43" stop-opacity="0"/>
</linearGradient>
<linearGradient id="paint42_linear_175_1884" x1="71.5" y1="425" x2="71.5" y2="736.381" gradientUnits="userSpaceOnUse">
<stop stop-color="#F7DD43"/>
<stop offset="1" stop-color="#F7DD43" stop-opacity="0"/>
</linearGradient>
<linearGradient id="paint43_linear_175_1884" x1="71.5" y1="425" x2="71.5" y2="736.381" gradientUnits="userSpaceOnUse">
<stop stop-color="#F7DD43"/>
<stop offset="1" stop-color="#F7DD43" stop-opacity="0"/>
</linearGradient>
<linearGradient id="paint44_linear_175_1884" x1="71.5" y1="425" x2="71.5" y2="736.381" gradientUnits="userSpaceOnUse">
<stop stop-color="#F7DD43"/>
<stop offset="1" stop-color="#F7DD43" stop-opacity="0"/>
</linearGradient>
<linearGradient id="paint45_linear_175_1884" x1="71.5" y1="425" x2="71.5" y2="736.381" gradientUnits="userSpaceOnUse">
<stop stop-color="#F7DD43"/>
<stop offset="1" stop-color="#F7DD43" stop-opacity="0"/>
</linearGradient>
<linearGradient id="paint46_linear_175_1884" x1="71.5" y1="425" x2="71.5" y2="736.381" gradientUnits="userSpaceOnUse">
<stop stop-color="#F7DD43"/>
<stop offset="1" stop-color="#F7DD43" stop-opacity="0"/>
</linearGradient>
<linearGradient id="paint47_linear_175_1884" x1="957.5" y1="125" x2="957.5" y2="423.818" gradientUnits="userSpaceOnUse">
<stop stop-color="#F7DD43"/>
<stop offset="1" stop-color="#F7DD43" stop-opacity="0"/>
</linearGradient>
<linearGradient id="paint48_linear_175_1884" x1="957.5" y1="125" x2="957.5" y2="423.818" gradientUnits="userSpaceOnUse">
<stop stop-color="#F7DD43"/>
<stop offset="1" stop-color="#F7DD43" stop-opacity="0"/>
</linearGradient>
<linearGradient id="paint49_linear_175_1884" x1="957.5" y1="125" x2="957.5" y2="423.818" gradientUnits="userSpaceOnUse">
<stop stop-color="#F7DD43"/>
<stop offset="1" stop-color="#F7DD43" stop-opacity="0"/>
</linearGradient>
<linearGradient id="paint50_linear_175_1884" x1="957.5" y1="125" x2="957.5" y2="423.818" gradientUnits="userSpaceOnUse">
<stop stop-color="#F7DD43"/>
<stop offset="1" stop-color="#F7DD43" stop-opacity="0"/>
</linearGradient>
<linearGradient id="paint51_linear_175_1884" x1="957.5" y1="125" x2="957.5" y2="423.818" gradientUnits="userSpaceOnUse">
<stop stop-color="#F7DD43"/>
<stop offset="1" stop-color="#F7DD43" stop-opacity="0"/>
</linearGradient>
<linearGradient id="paint52_linear_175_1884" x1="957.5" y1="125" x2="957.5" y2="423.818" gradientUnits="userSpaceOnUse">
<stop stop-color="#F7DD43"/>
<stop offset="1" stop-color="#F7DD43" stop-opacity="0"/>
</linearGradient>
<linearGradient id="paint53_linear_175_1884" x1="957.5" y1="125" x2="957.5" y2="423.818" gradientUnits="userSpaceOnUse">
<stop stop-color="#F7DD43"/>
<stop offset="1" stop-color="#F7DD43" stop-opacity="0"/>
</linearGradient>
<linearGradient id="paint54_linear_175_1884" x1="957.5" y1="125" x2="957.5" y2="423.818" gradientUnits="userSpaceOnUse">
<stop stop-color="#F7DD43"/>
<stop offset="1" stop-color="#F7DD43" stop-opacity="0"/>
</linearGradient>
<linearGradient id="paint55_linear_175_1884" x1="957.5" y1="125" x2="957.5" y2="423.818" gradientUnits="userSpaceOnUse">
<stop stop-color="#F7DD43"/>
<stop offset="1" stop-color="#F7DD43" stop-opacity="0"/>
</linearGradient>
<linearGradient id="paint56_linear_175_1884" x1="957.5" y1="125" x2="957.5" y2="423.818" gradientUnits="userSpaceOnUse">
<stop stop-color="#F7DD43"/>
<stop offset="1" stop-color="#F7DD43" stop-opacity="0"/>
</linearGradient>
<linearGradient id="paint57_linear_175_1884" x1="957.5" y1="125" x2="957.5" y2="423.818" gradientUnits="userSpaceOnUse">
<stop stop-color="#F7DD43"/>
<stop offset="1" stop-color="#F7DD43" stop-opacity="0"/>
</linearGradient>
<linearGradient id="paint58_linear_175_1884" x1="957.5" y1="125" x2="957.5" y2="423.818" gradientUnits="userSpaceOnUse">
<stop stop-color="#F7DD43"/>
<stop offset="1" stop-color="#F7DD43" stop-opacity="0"/>
</linearGradient>
<linearGradient id="paint59_linear_175_1884" x1="957.5" y1="125" x2="957.5" y2="423.818" gradientUnits="userSpaceOnUse">
<stop stop-color="#F7DD43"/>
<stop offset="1" stop-color="#F7DD43" stop-opacity="0"/>
</linearGradient>
<linearGradient id="paint60_linear_175_1884" x1="957.5" y1="125" x2="957.5" y2="423.818" gradientUnits="userSpaceOnUse">
<stop stop-color="#F7DD43"/>
<stop offset="1" stop-color="#F7DD43" stop-opacity="0"/>
</linearGradient>
<linearGradient id="paint61_linear_175_1884" x1="957.5" y1="125" x2="957.5" y2="423.818" gradientUnits="userSpaceOnUse">
<stop stop-color="#F7DD43"/>
<stop offset="1" stop-color="#F7DD43" stop-opacity="0"/>
</linearGradient>
<linearGradient id="paint62_linear_175_1884" x1="957.5" y1="125" x2="957.5" y2="423.818" gradientUnits="userSpaceOnUse">
<stop stop-color="#F7DD43"/>
<stop offset="1" stop-color="#F7DD43" stop-opacity="0"/>
</linearGradient>
<linearGradient id="paint63_linear_175_1884" x1="957.5" y1="125" x2="957.5" y2="423.818" gradientUnits="userSpaceOnUse">
<stop stop-color="#F7DD43"/>
<stop offset="1" stop-color="#F7DD43" stop-opacity="0"/>
</linearGradient>
<linearGradient id="paint64_linear_175_1884" x1="957.5" y1="125" x2="957.5" y2="423.818" gradientUnits="userSpaceOnUse">
<stop stop-color="#F7DD43"/>
<stop offset="1" stop-color="#F7DD43" stop-opacity="0"/>
</linearGradient>
<linearGradient id="paint65_linear_175_1884" x1="957.5" y1="125" x2="957.5" y2="423.818" gradientUnits="userSpaceOnUse">
<stop stop-color="#F7DD43"/>
<stop offset="1" stop-color="#F7DD43" stop-opacity="0"/>
</linearGradient>
<linearGradient id="paint66_linear_175_1884" x1="957.5" y1="125" x2="957.5" y2="423.818" gradientUnits="userSpaceOnUse">
<stop stop-color="#F7DD43"/>
<stop offset="1" stop-color="#F7DD43" stop-opacity="0"/>
</linearGradient>
<linearGradient id="paint67_linear_175_1884" x1="957.5" y1="125" x2="957.5" y2="423.818" gradientUnits="userSpaceOnUse">
<stop stop-color="#F7DD43"/>
<stop offset="1" stop-color="#F7DD43" stop-opacity="0"/>
</linearGradient>
<linearGradient id="paint68_linear_175_1884" x1="957.5" y1="125" x2="957.5" y2="423.818" gradientUnits="userSpaceOnUse">
<stop stop-color="#F7DD43"/>
<stop offset="1" stop-color="#F7DD43" stop-opacity="0"/>
</linearGradient>
<linearGradient id="paint69_linear_175_1884" x1="957.5" y1="125" x2="957.5" y2="423.818" gradientUnits="userSpaceOnUse">
<stop stop-color="#F7DD43"/>
<stop offset="1" stop-color="#F7DD43" stop-opacity="0"/>
</linearGradient>
<linearGradient id="paint70_linear_175_1884" x1="957.5" y1="125" x2="957.5" y2="423.818" gradientUnits="userSpaceOnUse">
<stop stop-color="#F7DD43"/>
<stop offset="1" stop-color="#F7DD43" stop-opacity="0"/>
</linearGradient>
<linearGradient id="paint71_linear_175_1884" x1="957.5" y1="125" x2="957.5" y2="423.818" gradientUnits="userSpaceOnUse">
<stop stop-color="#F7DD43"/>
<stop offset="1" stop-color="#F7DD43" stop-opacity="0"/>
</linearGradient>
<linearGradient id="paint72_linear_175_1884" x1="957.5" y1="125" x2="957.5" y2="423.818" gradientUnits="userSpaceOnUse">
<stop stop-color="#F7DD43"/>
<stop offset="1" stop-color="#F7DD43" stop-opacity="0"/>
</linearGradient>
<linearGradient id="paint73_linear_175_1884" x1="957.5" y1="125" x2="957.5" y2="423.818" gradientUnits="userSpaceOnUse">
<stop stop-color="#F7DD43"/>
<stop offset="1" stop-color="#F7DD43" stop-opacity="0"/>
</linearGradient>
<linearGradient id="paint74_linear_175_1884" x1="957.5" y1="125" x2="957.5" y2="423.818" gradientUnits="userSpaceOnUse">
<stop stop-color="#F7DD43"/>
<stop offset="1" stop-color="#F7DD43" stop-opacity="0"/>
</linearGradient>
<linearGradient id="paint75_linear_175_1884" x1="957.5" y1="125" x2="957.5" y2="423.818" gradientUnits="userSpaceOnUse">
<stop stop-color="#F7DD43"/>
<stop offset="1" stop-color="#F7DD43" stop-opacity="0"/>
</linearGradient>
<linearGradient id="paint76_linear_175_1884" x1="957.5" y1="125" x2="957.5" y2="423.818" gradientUnits="userSpaceOnUse">
<stop stop-color="#F7DD43"/>
<stop offset="1" stop-color="#F7DD43" stop-opacity="0"/>
</linearGradient>
<linearGradient id="paint77_linear_175_1884" x1="957.5" y1="125" x2="957.5" y2="423.818" gradientUnits="userSpaceOnUse">
<stop stop-color="#F7DD43"/>
<stop offset="1" stop-color="#F7DD43" stop-opacity="0"/>
</linearGradient>
<linearGradient id="paint78_linear_175_1884" x1="957.5" y1="125" x2="957.5" y2="423.818" gradientUnits="userSpaceOnUse">
<stop stop-color="#F7DD43"/>
<stop offset="1" stop-color="#F7DD43" stop-opacity="0"/>
</linearGradient>
<linearGradient id="paint79_linear_175_1884" x1="957.5" y1="125" x2="957.5" y2="423.818" gradientUnits="userSpaceOnUse">
<stop stop-color="#F7DD43"/>
<stop offset="1" stop-color="#F7DD43" stop-opacity="0"/>
</linearGradient>
<linearGradient id="paint80_linear_175_1884" x1="957.5" y1="125" x2="957.5" y2="423.818" gradientUnits="userSpaceOnUse">
<stop stop-color="#F7DD43"/>
<stop offset="1" stop-color="#F7DD43" stop-opacity="0"/>
</linearGradient>
<linearGradient id="paint81_linear_175_1884" x1="957.5" y1="125" x2="957.5" y2="423.818" gradientUnits="userSpaceOnUse">
<stop stop-color="#F7DD43"/>
<stop offset="1" stop-color="#F7DD43" stop-opacity="0"/>
</linearGradient>
<linearGradient id="paint82_linear_175_1884" x1="957.5" y1="125" x2="957.5" y2="423.818" gradientUnits="userSpaceOnUse">
<stop stop-color="#F7DD43"/>
<stop offset="1" stop-color="#F7DD43" stop-opacity="0"/>
</linearGradient>
<linearGradient id="paint83_linear_175_1884" x1="957.5" y1="125" x2="957.5" y2="423.818" gradientUnits="userSpaceOnUse">
<stop stop-color="#F7DD43"/>
<stop offset="1" stop-color="#F7DD43" stop-opacity="0"/>
</linearGradient>
<linearGradient id="paint84_linear_175_1884" x1="957.5" y1="125" x2="957.5" y2="423.818" gradientUnits="userSpaceOnUse">
<stop stop-color="#F7DD43"/>
<stop offset="1" stop-color="#F7DD43" stop-opacity="0"/>
</linearGradient>
<linearGradient id="paint85_linear_175_1884" x1="957.5" y1="125" x2="957.5" y2="423.818" gradientUnits="userSpaceOnUse">
<stop stop-color="#F7DD43"/>
<stop offset="1" stop-color="#F7DD43" stop-opacity="0"/>
</linearGradient>
<linearGradient id="paint86_linear_175_1884" x1="957.5" y1="125" x2="957.5" y2="423.818" gradientUnits="userSpaceOnUse">
<stop stop-color="#F7DD43"/>
<stop offset="1" stop-color="#F7DD43" stop-opacity="0"/>
</linearGradient>
<linearGradient id="paint87_linear_175_1884" x1="957.5" y1="125" x2="957.5" y2="423.818" gradientUnits="userSpaceOnUse">
<stop stop-color="#F7DD43"/>
<stop offset="1" stop-color="#F7DD43" stop-opacity="0"/>
</linearGradient>
<linearGradient id="paint88_linear_175_1884" x1="957.5" y1="125" x2="957.5" y2="423.818" gradientUnits="userSpaceOnUse">
<stop stop-color="#F7DD43"/>
<stop offset="1" stop-color="#F7DD43" stop-opacity="0"/>
</linearGradient>
<linearGradient id="paint89_linear_175_1884" x1="957.5" y1="125" x2="957.5" y2="423.818" gradientUnits="userSpaceOnUse">
<stop stop-color="#F7DD43"/>
<stop offset="1" stop-color="#F7DD43" stop-opacity="0"/>
</linearGradient>
<linearGradient id="paint90_linear_175_1884" x1="957.5" y1="125" x2="957.5" y2="423.818" gradientUnits="userSpaceOnUse">
<stop stop-color="#F7DD43"/>
<stop offset="1" stop-color="#F7DD43" stop-opacity="0"/>
</linearGradient>
<linearGradient id="paint91_linear_175_1884" x1="957.5" y1="125" x2="957.5" y2="423.818" gradientUnits="userSpaceOnUse">
<stop stop-color="#F7DD43"/>
<stop offset="1" stop-color="#F7DD43" stop-opacity="0"/>
</linearGradient>
<linearGradient id="paint92_linear_175_1884" x1="957.5" y1="125" x2="957.5" y2="423.818" gradientUnits="userSpaceOnUse">
<stop stop-color="#F7DD43"/>
<stop offset="1" stop-color="#F7DD43" stop-opacity="0"/>
</linearGradient>
<linearGradient id="paint93_linear_175_1884" x1="957.5" y1="125" x2="957.5" y2="423.818" gradientUnits="userSpaceOnUse">
<stop stop-color="#F7DD43"/>
<stop offset="1" stop-color="#F7DD43" stop-opacity="0"/>
</linearGradient>
<clipPath id="clip0_175_1884">
<rect width="1024" height="2048" fill="white"/>
</clipPath>
</defs>
</svg>
