<svg width="400" height="4404" viewBox="0 0 400 4404" fill="none" xmlns="http://www.w3.org/2000/svg">
<g clip-path="url(#clip0_175_1850)">
<rect width="400" height="4404" fill="#121214"/>
<g opacity="0.2" filter="url(#filter0_f_175_1850)">
<ellipse cx="543.5" cy="471" rx="670.5" ry="350" fill="#121214"/>
</g>
<path d="M64.0349 707C65.5302 707 66.6622 707.63 67.4308 708.891C68.2134 710.138 68.6047 711.953 68.6047 714.336C68.6047 716.719 68.2134 718.541 67.4308 719.802C66.6622 721.063 65.5302 721.693 64.0349 721.693C62.5536 721.693 61.4216 721.063 60.639 719.802C59.8564 718.541 59.4651 716.719 59.4651 714.336C59.4651 711.967 59.8564 710.152 60.639 708.891C61.4216 707.63 62.5536 707 64.0349 707ZM60.9534 714.336C60.9534 716.026 61.1072 717.35 61.4146 718.306L66.0683 709.099C65.5791 708.448 64.9013 708.122 64.0349 708.122C63.0706 708.122 62.316 708.635 61.771 709.66C61.2259 710.672 60.9534 712.23 60.9534 714.336ZM64.0349 720.55C65.0131 720.55 65.7748 720.044 66.3198 719.033C66.8648 718.008 67.1373 716.442 67.1373 714.336C67.1373 712.549 66.9627 711.163 66.6133 710.18L61.9596 719.469C62.4627 720.19 63.1545 720.55 64.0349 720.55Z" fill="url(#paint0_linear_175_1850)" fill-opacity="0.6"/>
<path d="M65.2926 744.135H68.3741V745.236H60.3874V744.135H63.9511V732.455L60.5551 734.471L59.9682 733.536L64.1607 730.959H65.2926V744.135Z" fill="url(#paint1_linear_175_1850)" fill-opacity="0.6"/>
<path d="M64.0349 754.502C65.5302 754.502 66.6622 755.133 67.4308 756.393C68.2134 757.64 68.6047 759.455 68.6047 761.838C68.6047 764.221 68.2134 766.043 67.4308 767.304C66.6622 768.565 65.5302 769.195 64.0349 769.195C62.5536 769.195 61.4216 768.565 60.639 767.304C59.8564 766.043 59.4651 764.221 59.4651 761.838C59.4651 759.469 59.8564 757.654 60.639 756.393C61.4216 755.133 62.5536 754.502 64.0349 754.502ZM60.9534 761.838C60.9534 763.529 61.1072 764.852 61.4146 765.808L66.0683 756.601C65.5791 755.95 64.9013 755.624 64.0349 755.624C63.0706 755.624 62.316 756.137 61.771 757.162C61.2259 758.174 60.9534 759.732 60.9534 761.838ZM64.0349 768.052C65.0131 768.052 65.7748 767.546 66.3198 766.535C66.8648 765.51 67.1373 763.944 67.1373 761.838C67.1373 760.051 66.9627 758.665 66.6133 757.682L61.9596 766.971C62.4627 767.692 63.1545 768.052 64.0349 768.052Z" fill="url(#paint2_linear_175_1850)" fill-opacity="0.6"/>
<path d="M65.2926 791.637H68.3741V792.738H60.3874V791.637H63.9511V779.957L60.5551 781.973L59.9682 781.038L64.1607 778.461H65.2926V791.637Z" fill="url(#paint3_linear_175_1850)" fill-opacity="0.6"/>
<path d="M65.2926 815.388H68.3741V816.489H60.3874V815.388H63.9511V803.708L60.5551 805.724L59.9682 804.789L64.1607 802.212H65.2926V815.388Z" fill="url(#paint4_linear_175_1850)" fill-opacity="0.6"/>
<path d="M64.0349 825.755C65.5302 825.755 66.6622 826.386 67.4308 827.646C68.2134 828.893 68.6047 830.708 68.6047 833.091C68.6047 835.474 68.2134 837.296 67.4308 838.557C66.6622 839.818 65.5302 840.448 64.0349 840.448C62.5536 840.448 61.4216 839.818 60.639 838.557C59.8564 837.296 59.4651 835.474 59.4651 833.091C59.4651 830.722 59.8564 828.907 60.639 827.646C61.4216 826.386 62.5536 825.755 64.0349 825.755ZM60.9534 833.091C60.9534 834.782 61.1072 836.105 61.4146 837.061L66.0683 827.854C65.5791 827.203 64.9013 826.878 64.0349 826.878C63.0706 826.878 62.316 827.39 61.771 828.415C61.2259 829.427 60.9534 830.985 60.9534 833.091ZM64.0349 839.305C65.0131 839.305 65.7748 838.8 66.3198 837.788C66.8648 836.763 67.1373 835.197 67.1373 833.091C67.1373 831.304 66.9627 829.919 66.6133 828.935L61.9596 838.225C62.4627 838.945 63.1545 839.305 64.0349 839.305Z" fill="url(#paint5_linear_175_1850)" fill-opacity="0.6"/>
<path d="M65.2926 862.89H68.3741V863.992H60.3874V862.89H63.9511V851.21L60.5551 853.226L59.9682 852.291L64.1607 849.714H65.2926V862.89Z" fill="url(#paint6_linear_175_1850)" fill-opacity="0.6"/>
<path d="M64.0349 873.257C65.5302 873.257 66.6622 873.888 67.4308 875.149C68.2134 876.396 68.6047 878.211 68.6047 880.594C68.6047 882.977 68.2134 884.798 67.4308 886.059C66.6622 887.32 65.5302 887.95 64.0349 887.95C62.5536 887.95 61.4216 887.32 60.639 886.059C59.8564 884.798 59.4651 882.977 59.4651 880.594C59.4651 878.224 59.8564 876.409 60.639 875.149C61.4216 873.888 62.5536 873.257 64.0349 873.257ZM60.9534 880.594C60.9534 882.284 61.1072 883.607 61.4146 884.563L66.0683 875.356C65.5791 874.705 64.9013 874.38 64.0349 874.38C63.0706 874.38 62.316 874.892 61.771 875.918C61.2259 876.929 60.9534 878.488 60.9534 880.594ZM64.0349 886.807C65.0131 886.807 65.7748 886.302 66.3198 885.29C66.8648 884.265 67.1373 882.699 67.1373 880.594C67.1373 878.806 66.9627 877.421 66.6133 876.437L61.9596 885.727C62.4627 886.447 63.1545 886.807 64.0349 886.807Z" fill="url(#paint7_linear_175_1850)" fill-opacity="0.6"/>
<path d="M64.0349 897.008C65.5302 897.008 66.6622 897.639 67.4308 898.9C68.2134 900.147 68.6047 901.962 68.6047 904.345C68.6047 906.728 68.2134 908.549 67.4308 909.81C66.6622 911.071 65.5302 911.701 64.0349 911.701C62.5536 911.701 61.4216 911.071 60.639 909.81C59.8564 908.549 59.4651 906.728 59.4651 904.345C59.4651 901.975 59.8564 900.16 60.639 898.9C61.4216 897.639 62.5536 897.008 64.0349 897.008ZM60.9534 904.345C60.9534 906.035 61.1072 907.358 61.4146 908.314L66.0683 899.107C65.5791 898.456 64.9013 898.131 64.0349 898.131C63.0706 898.131 62.316 898.643 61.771 899.669C61.2259 900.68 60.9534 902.239 60.9534 904.345ZM64.0349 910.558C65.0131 910.558 65.7748 910.053 66.3198 909.041C66.8648 908.016 67.1373 906.451 67.1373 904.345C67.1373 902.557 66.9627 901.172 66.6133 900.188L61.9596 909.478C62.4627 910.198 63.1545 910.558 64.0349 910.558Z" fill="url(#paint8_linear_175_1850)" fill-opacity="0.6"/>
<path d="M65.2926 934.143H68.3741V935.245H60.3874V934.143H63.9511V922.464L60.5551 924.48L59.9682 923.544L64.1607 920.967H65.2926V934.143Z" fill="url(#paint9_linear_175_1850)" fill-opacity="0.6"/>
<path d="M64.0349 944.511C65.5302 944.511 66.6622 945.141 67.4308 946.402C68.2134 947.649 68.6047 949.464 68.6047 951.847C68.6047 954.23 68.2134 956.052 67.4308 957.312C66.6622 958.573 65.5302 959.204 64.0349 959.204C62.5536 959.204 61.4216 958.573 60.639 957.312C59.8564 956.052 59.4651 954.23 59.4651 951.847C59.4651 949.478 59.8564 947.663 60.639 946.402C61.4216 945.141 62.5536 944.511 64.0349 944.511ZM60.9534 951.847C60.9534 953.537 61.1072 954.86 61.4146 955.816L66.0683 946.61C65.5791 945.958 64.9013 945.633 64.0349 945.633C63.0706 945.633 62.316 946.145 61.771 947.171C61.2259 948.182 60.9534 949.741 60.9534 951.847ZM64.0349 958.061C65.0131 958.061 65.7748 957.555 66.3198 956.543C66.8648 955.518 67.1373 953.953 67.1373 951.847C67.1373 950.059 66.9627 948.674 66.6133 947.69L61.9596 956.98C62.4627 957.7 63.1545 958.061 64.0349 958.061Z" fill="url(#paint10_linear_175_1850)" fill-opacity="0.6"/>
<path d="M65.2926 981.645H68.3741V982.747H60.3874V981.645H63.9511V969.966L60.5551 971.982L59.9682 971.046L64.1607 968.469H65.2926V981.645Z" fill="url(#paint11_linear_175_1850)" fill-opacity="0.6"/>
<path d="M65.2926 1005.4H68.3741V1006.5H60.3874V1005.4H63.9511V993.717L60.5551 995.733L59.9682 994.798L64.1607 992.221H65.2926V1005.4Z" fill="url(#paint12_linear_175_1850)" fill-opacity="0.6"/>
<path d="M102.965 754.502C104.46 754.502 105.592 755.133 106.361 756.393C107.144 757.64 107.535 759.455 107.535 761.838C107.535 764.221 107.144 766.043 106.361 767.304C105.592 768.565 104.46 769.195 102.965 769.195C101.484 769.195 100.352 768.565 99.5692 767.304C98.7866 766.043 98.3953 764.221 98.3953 761.838C98.3953 759.469 98.7866 757.654 99.5692 756.393C100.352 755.133 101.484 754.502 102.965 754.502ZM99.8836 761.838C99.8836 763.529 100.037 764.852 100.345 765.808L104.998 756.601C104.509 755.95 103.832 755.624 102.965 755.624C102.001 755.624 101.246 756.137 100.701 757.162C100.156 758.174 99.8836 759.732 99.8836 761.838ZM102.965 768.052C103.943 768.052 104.705 767.546 105.25 766.535C105.795 765.51 106.068 763.944 106.068 761.838C106.068 760.051 105.893 758.665 105.543 757.682L100.89 766.971C101.393 767.692 102.085 768.052 102.965 768.052Z" fill="url(#paint13_linear_175_1850)" fill-opacity="0.6"/>
<path d="M104.223 791.637H107.304V792.738H99.3176V791.637H102.881V779.957L99.4853 781.973L98.8984 781.038L103.091 778.461H104.223V791.637Z" fill="url(#paint14_linear_175_1850)" fill-opacity="0.6"/>
<path d="M102.965 802.004C104.46 802.004 105.592 802.635 106.361 803.895C107.144 805.142 107.535 806.957 107.535 809.34C107.535 811.723 107.144 813.545 106.361 814.806C105.592 816.067 104.46 816.697 102.965 816.697C101.484 816.697 100.352 816.067 99.5692 814.806C98.7866 813.545 98.3953 811.723 98.3953 809.34C98.3953 806.971 98.7866 805.156 99.5692 803.895C100.352 802.635 101.484 802.004 102.965 802.004ZM99.8836 809.34C99.8836 811.031 100.037 812.354 100.345 813.31L104.998 804.103C104.509 803.452 103.832 803.126 102.965 803.126C102.001 803.126 101.246 803.639 100.701 804.664C100.156 805.676 99.8836 807.234 99.8836 809.34ZM102.965 815.554C103.943 815.554 104.705 815.049 105.25 814.037C105.795 813.012 106.068 811.446 106.068 809.34C106.068 807.553 105.893 806.168 105.543 805.184L100.89 814.474C101.393 815.194 102.085 815.554 102.965 815.554Z" fill="url(#paint15_linear_175_1850)" fill-opacity="0.6"/>
<path d="M102.965 825.755C104.46 825.755 105.592 826.386 106.361 827.646C107.144 828.893 107.535 830.708 107.535 833.091C107.535 835.474 107.144 837.296 106.361 838.557C105.592 839.818 104.46 840.448 102.965 840.448C101.484 840.448 100.352 839.818 99.5692 838.557C98.7866 837.296 98.3953 835.474 98.3953 833.091C98.3953 830.722 98.7866 828.907 99.5692 827.646C100.352 826.386 101.484 825.755 102.965 825.755ZM99.8836 833.091C99.8836 834.782 100.037 836.105 100.345 837.061L104.998 827.854C104.509 827.203 103.832 826.878 102.965 826.878C102.001 826.878 101.246 827.39 100.701 828.415C100.156 829.427 99.8836 830.985 99.8836 833.091ZM102.965 839.305C103.943 839.305 104.705 838.8 105.25 837.788C105.795 836.763 106.068 835.197 106.068 833.091C106.068 831.304 105.893 829.919 105.543 828.935L100.89 838.225C101.393 838.945 102.085 839.305 102.965 839.305Z" fill="url(#paint16_linear_175_1850)" fill-opacity="0.6"/>
<path d="M104.223 862.89H107.304V863.992H99.3176V862.89H102.881V851.21L99.4853 853.226L98.8984 852.291L103.091 849.714H104.223V862.89Z" fill="url(#paint17_linear_175_1850)" fill-opacity="0.6"/>
<path d="M102.965 873.257C104.46 873.257 105.592 873.888 106.361 875.149C107.144 876.396 107.535 878.211 107.535 880.594C107.535 882.977 107.144 884.798 106.361 886.059C105.592 887.32 104.46 887.95 102.965 887.95C101.484 887.95 100.352 887.32 99.5692 886.059C98.7866 884.798 98.3953 882.977 98.3953 880.594C98.3953 878.224 98.7866 876.409 99.5692 875.149C100.352 873.888 101.484 873.257 102.965 873.257ZM99.8836 880.594C99.8836 882.284 100.037 883.607 100.345 884.563L104.998 875.356C104.509 874.705 103.832 874.38 102.965 874.38C102.001 874.38 101.246 874.892 100.701 875.918C100.156 876.929 99.8836 878.488 99.8836 880.594ZM102.965 886.807C103.943 886.807 104.705 886.302 105.25 885.29C105.795 884.265 106.068 882.699 106.068 880.594C106.068 878.806 105.893 877.421 105.543 876.437L100.89 885.727C101.393 886.447 102.085 886.807 102.965 886.807Z" fill="url(#paint18_linear_175_1850)" fill-opacity="0.6"/>
<path d="M104.223 910.392H107.304V911.494H99.3176V910.392H102.881V898.713L99.4853 900.728L98.8984 899.793L103.091 897.216H104.223V910.392Z" fill="url(#paint19_linear_175_1850)" fill-opacity="0.6"/>
<path d="M102.965 920.76C104.46 920.76 105.592 921.39 106.361 922.651C107.144 923.898 107.535 925.713 107.535 928.096C107.535 930.479 107.144 932.301 106.361 933.561C105.592 934.822 104.46 935.453 102.965 935.453C101.484 935.453 100.352 934.822 99.5692 933.561C98.7866 932.301 98.3953 930.479 98.3953 928.096C98.3953 925.726 98.7866 923.911 99.5692 922.651C100.352 921.39 101.484 920.76 102.965 920.76ZM99.8836 928.096C99.8836 929.786 100.037 931.109 100.345 932.065L104.998 922.859C104.509 922.207 103.832 921.882 102.965 921.882C102.001 921.882 101.246 922.394 100.701 923.42C100.156 924.431 99.8836 925.99 99.8836 928.096ZM102.965 934.31C103.943 934.31 104.705 933.804 105.25 932.792C105.795 931.767 106.068 930.202 106.068 928.096C106.068 926.308 105.893 924.923 105.543 923.939L100.89 933.229C101.393 933.949 102.085 934.31 102.965 934.31Z" fill="url(#paint20_linear_175_1850)" fill-opacity="0.6"/>
<path d="M102.965 944.511C104.46 944.511 105.592 945.141 106.361 946.402C107.144 947.649 107.535 949.464 107.535 951.847C107.535 954.23 107.144 956.052 106.361 957.312C105.592 958.573 104.46 959.204 102.965 959.204C101.484 959.204 100.352 958.573 99.5692 957.312C98.7866 956.052 98.3953 954.23 98.3953 951.847C98.3953 949.478 98.7866 947.663 99.5692 946.402C100.352 945.141 101.484 944.511 102.965 944.511ZM99.8836 951.847C99.8836 953.537 100.037 954.86 100.345 955.816L104.998 946.61C104.509 945.958 103.832 945.633 102.965 945.633C102.001 945.633 101.246 946.145 100.701 947.171C100.156 948.182 99.8836 949.741 99.8836 951.847ZM102.965 958.061C103.943 958.061 104.705 957.555 105.25 956.543C105.795 955.518 106.068 953.953 106.068 951.847C106.068 950.059 105.893 948.674 105.543 947.69L100.89 956.98C101.393 957.7 102.085 958.061 102.965 958.061Z" fill="url(#paint21_linear_175_1850)" fill-opacity="0.6"/>
<path d="M104.223 981.645H107.304V982.747H99.3176V981.645H102.881V969.966L99.4853 971.982L98.8984 971.046L103.091 968.469H104.223V981.645Z" fill="url(#paint22_linear_175_1850)" fill-opacity="0.6"/>
<path d="M102.965 992.013C104.46 992.013 105.592 992.643 106.361 993.904C107.144 995.151 107.535 996.966 107.535 999.349C107.535 1001.73 107.144 1003.55 106.361 1004.81C105.592 1006.08 104.46 1006.71 102.965 1006.71C101.484 1006.71 100.352 1006.08 99.5692 1004.81C98.7866 1003.55 98.3953 1001.73 98.3953 999.349C98.3953 996.98 98.7866 995.165 99.5692 993.904C100.352 992.643 101.484 992.013 102.965 992.013ZM99.8836 999.349C99.8836 1001.04 100.037 1002.36 100.345 1003.32L104.998 994.112C104.509 993.461 103.832 993.135 102.965 993.135C102.001 993.135 101.246 993.648 100.701 994.673C100.156 995.684 99.8836 997.243 99.8836 999.349ZM102.965 1005.56C103.943 1005.56 104.705 1005.06 105.25 1004.05C105.795 1003.02 106.068 1001.45 106.068 999.349C106.068 997.562 105.893 996.176 105.543 995.192L100.89 1004.48C101.393 1005.2 102.085 1005.56 102.965 1005.56Z" fill="url(#paint23_linear_175_1850)" fill-opacity="0.6"/>
<path d="M104.223 1029.15H107.304V1030.25H99.3176V1029.15H102.881V1017.47L99.4853 1019.48L98.8984 1018.55L103.091 1015.97H104.223V1029.15Z" fill="url(#paint24_linear_175_1850)" fill-opacity="0.6"/>
<path d="M104.223 1052.9H107.304V1054H99.3176V1052.9H102.881V1041.22L99.4853 1043.23L98.8984 1042.3L103.091 1039.72H104.223V1052.9Z" fill="url(#paint25_linear_175_1850)" fill-opacity="0.6"/>
<path d="M44.5698 778.253C46.0651 778.253 47.1971 778.884 47.9657 780.144C48.7483 781.391 49.1396 783.206 49.1396 785.589C49.1396 787.972 48.7483 789.794 47.9657 791.055C47.1971 792.316 46.0651 792.946 44.5698 792.946C43.0885 792.946 41.9565 792.316 41.1739 791.055C40.3913 789.794 40 787.972 40 785.589C40 783.22 40.3913 781.405 41.1739 780.144C41.9565 778.884 43.0885 778.253 44.5698 778.253ZM41.4883 785.589C41.4883 787.28 41.6421 788.603 41.9495 789.559L46.6032 780.352C46.114 779.701 45.4363 779.375 44.5698 779.375C43.6055 779.375 42.8509 779.888 42.3059 780.913C41.7608 781.925 41.4883 783.483 41.4883 785.589ZM44.5698 791.803C45.5481 791.803 46.3097 791.297 46.8547 790.286C47.3997 789.261 47.6722 787.695 47.6722 785.589C47.6722 783.802 47.4976 782.417 47.1482 781.433L42.4945 790.722C42.9976 791.443 43.6894 791.803 44.5698 791.803Z" fill="url(#paint26_linear_175_1850)" fill-opacity="0.6"/>
<path d="M44.5698 802.004C46.0651 802.004 47.1971 802.635 47.9657 803.895C48.7483 805.142 49.1396 806.957 49.1396 809.34C49.1396 811.723 48.7483 813.545 47.9657 814.806C47.1971 816.067 46.0651 816.697 44.5698 816.697C43.0885 816.697 41.9565 816.067 41.1739 814.806C40.3913 813.545 40 811.723 40 809.34C40 806.971 40.3913 805.156 41.1739 803.895C41.9565 802.635 43.0885 802.004 44.5698 802.004ZM41.4883 809.34C41.4883 811.031 41.6421 812.354 41.9495 813.31L46.6032 804.103C46.114 803.452 45.4363 803.126 44.5698 803.126C43.6055 803.126 42.8509 803.639 42.3059 804.664C41.7608 805.676 41.4883 807.234 41.4883 809.34ZM44.5698 815.554C45.5481 815.554 46.3097 815.049 46.8547 814.037C47.3997 813.012 47.6722 811.446 47.6722 809.34C47.6722 807.553 47.4976 806.168 47.1482 805.184L42.4945 814.474C42.9976 815.194 43.6894 815.554 44.5698 815.554Z" fill="url(#paint27_linear_175_1850)" fill-opacity="0.6"/>
<path d="M45.8276 839.139H48.909V840.24H40.9223V839.139H44.486V827.459L41.09 829.475L40.5031 828.54L44.6956 825.963H45.8276V839.139Z" fill="url(#paint28_linear_175_1850)" fill-opacity="0.6"/>
<path d="M44.5698 849.506C46.0651 849.506 47.1971 850.137 47.9657 851.398C48.7483 852.644 49.1396 854.459 49.1396 856.842C49.1396 859.225 48.7483 861.047 47.9657 862.308C47.1971 863.569 46.0651 864.199 44.5698 864.199C43.0885 864.199 41.9565 863.569 41.1739 862.308C40.3913 861.047 40 859.225 40 856.842C40 854.473 40.3913 852.658 41.1739 851.398C41.9565 850.137 43.0885 849.506 44.5698 849.506ZM41.4883 856.842C41.4883 858.533 41.6421 859.856 41.9495 860.812L46.6032 851.605C46.114 850.954 45.4363 850.629 44.5698 850.629C43.6055 850.629 42.8509 851.141 42.3059 852.166C41.7608 853.178 41.4883 854.737 41.4883 856.842ZM44.5698 863.056C45.5481 863.056 46.3097 862.551 46.8547 861.539C47.3997 860.514 47.6722 858.948 47.6722 856.842C47.6722 855.055 47.4976 853.67 47.1482 852.686L42.4945 861.976C42.9976 862.696 43.6894 863.056 44.5698 863.056Z" fill="url(#paint29_linear_175_1850)" fill-opacity="0.6"/>
<path d="M45.8276 886.641H48.909V887.743H40.9223V886.641H44.486V874.962L41.09 876.977L40.5031 876.042L44.6956 873.465H45.8276V886.641Z" fill="url(#paint30_linear_175_1850)" fill-opacity="0.6"/>
<path d="M45.8276 910.392H48.909V911.494H40.9223V910.392H44.486V898.713L41.09 900.728L40.5031 899.793L44.6956 897.216H45.8276V910.392Z" fill="url(#paint31_linear_175_1850)" fill-opacity="0.6"/>
<path d="M84.7577 744.135H87.8392V745.236H79.8525V744.135H83.4162V732.455L80.0202 734.471L79.4333 733.536L83.6258 730.959H84.7577V744.135Z" fill="url(#paint32_linear_175_1850)" fill-opacity="0.6"/>
<path d="M83.5 754.502C84.9953 754.502 86.1273 755.133 86.8959 756.393C87.6785 757.64 88.0698 759.455 88.0698 761.838C88.0698 764.221 87.6785 766.043 86.8959 767.304C86.1273 768.565 84.9953 769.195 83.5 769.195C82.0187 769.195 80.8867 768.565 80.1041 767.304C79.3215 766.043 78.9302 764.221 78.9302 761.838C78.9302 759.469 79.3215 757.654 80.1041 756.393C80.8867 755.133 82.0187 754.502 83.5 754.502ZM80.4185 761.838C80.4185 763.529 80.5723 764.852 80.8797 765.808L85.5334 756.601C85.0442 755.95 84.3664 755.624 83.5 755.624C82.5357 755.624 81.7811 756.137 81.2361 757.162C80.691 758.174 80.4185 759.732 80.4185 761.838ZM83.5 768.052C84.4782 768.052 85.2399 767.546 85.7849 766.535C86.3299 765.51 86.6024 763.944 86.6024 761.838C86.6024 760.051 86.4277 758.665 86.0784 757.682L81.4247 766.971C81.9278 767.692 82.6196 768.052 83.5 768.052Z" fill="url(#paint33_linear_175_1850)" fill-opacity="0.6"/>
<path d="M84.7577 791.637H87.8392V792.738H79.8525V791.637H83.4162V779.957L80.0202 781.973L79.4333 781.038L83.6258 778.461H84.7577V791.637Z" fill="url(#paint34_linear_175_1850)" fill-opacity="0.6"/>
<path d="M84.7577 815.388H87.8392V816.489H79.8525V815.388H83.4162V803.708L80.0202 805.724L79.4333 804.789L83.6258 802.212H84.7577V815.388Z" fill="url(#paint35_linear_175_1850)" fill-opacity="0.6"/>
<path d="M83.5 825.755C84.9953 825.755 86.1273 826.386 86.8959 827.646C87.6785 828.893 88.0698 830.708 88.0698 833.091C88.0698 835.474 87.6785 837.296 86.8959 838.557C86.1273 839.818 84.9953 840.448 83.5 840.448C82.0187 840.448 80.8867 839.818 80.1041 838.557C79.3215 837.296 78.9302 835.474 78.9302 833.091C78.9302 830.722 79.3215 828.907 80.1041 827.646C80.8867 826.386 82.0187 825.755 83.5 825.755ZM80.4185 833.091C80.4185 834.782 80.5723 836.105 80.8797 837.061L85.5334 827.854C85.0442 827.203 84.3664 826.878 83.5 826.878C82.5357 826.878 81.7811 827.39 81.2361 828.415C80.691 829.427 80.4185 830.985 80.4185 833.091ZM83.5 839.305C84.4782 839.305 85.2399 838.8 85.7849 837.788C86.3299 836.763 86.6024 835.197 86.6024 833.091C86.6024 831.304 86.4277 829.919 86.0784 828.935L81.4247 838.225C81.9278 838.945 82.6196 839.305 83.5 839.305Z" fill="url(#paint36_linear_175_1850)" fill-opacity="0.6"/>
<path d="M84.7577 862.89H87.8392V863.992H79.8525V862.89H83.4162V851.21L80.0202 853.226L79.4333 852.291L83.6258 849.714H84.7577V862.89Z" fill="url(#paint37_linear_175_1850)" fill-opacity="0.6"/>
<path d="M84.7577 886.641H87.8392V887.743H79.8525V886.641H83.4162V874.962L80.0202 876.977L79.4333 876.042L83.6258 873.465H84.7577V886.641Z" fill="url(#paint38_linear_175_1850)" fill-opacity="0.6"/>
<path d="M83.5 897.008C84.9953 897.008 86.1273 897.639 86.8959 898.9C87.6785 900.147 88.0698 901.962 88.0698 904.345C88.0698 906.728 87.6785 908.549 86.8959 909.81C86.1273 911.071 84.9953 911.701 83.5 911.701C82.0187 911.701 80.8867 911.071 80.1041 909.81C79.3215 908.549 78.9302 906.728 78.9302 904.345C78.9302 901.975 79.3215 900.16 80.1041 898.9C80.8867 897.639 82.0187 897.008 83.5 897.008ZM80.4185 904.345C80.4185 906.035 80.5723 907.358 80.8797 908.314L85.5334 899.107C85.0442 898.456 84.3664 898.131 83.5 898.131C82.5357 898.131 81.7811 898.643 81.2361 899.669C80.691 900.68 80.4185 902.239 80.4185 904.345ZM83.5 910.558C84.4782 910.558 85.2399 910.053 85.7849 909.041C86.3299 908.016 86.6024 906.451 86.6024 904.345C86.6024 902.557 86.4277 901.172 86.0784 900.188L81.4247 909.478C81.9278 910.198 82.6196 910.558 83.5 910.558Z" fill="url(#paint39_linear_175_1850)" fill-opacity="0.6"/>
<path d="M84.7577 934.143H87.8392V935.245H79.8525V934.143H83.4162V922.464L80.0202 924.48L79.4333 923.544L83.6258 920.967H84.7577V934.143Z" fill="url(#paint40_linear_175_1850)" fill-opacity="0.6"/>
<path d="M83.5 944.511C84.9953 944.511 86.1273 945.141 86.8959 946.402C87.6785 947.649 88.0698 949.464 88.0698 951.847C88.0698 954.23 87.6785 956.052 86.8959 957.312C86.1273 958.573 84.9953 959.204 83.5 959.204C82.0187 959.204 80.8867 958.573 80.1041 957.312C79.3215 956.052 78.9302 954.23 78.9302 951.847C78.9302 949.478 79.3215 947.663 80.1041 946.402C80.8867 945.141 82.0187 944.511 83.5 944.511ZM80.4185 951.847C80.4185 953.537 80.5723 954.86 80.8797 955.816L85.5334 946.61C85.0442 945.958 84.3664 945.633 83.5 945.633C82.5357 945.633 81.7811 946.145 81.2361 947.171C80.691 948.182 80.4185 949.741 80.4185 951.847ZM83.5 958.061C84.4782 958.061 85.2399 957.555 85.7849 956.543C86.3299 955.518 86.6024 953.953 86.6024 951.847C86.6024 950.059 86.4277 948.674 86.0784 947.69L81.4247 956.98C81.9278 957.7 82.6196 958.061 83.5 958.061Z" fill="url(#paint41_linear_175_1850)" fill-opacity="0.6"/>
<path d="M122.43 730.751C123.926 730.751 125.057 731.381 125.826 732.642C126.609 733.889 127 735.704 127 738.087C127 740.47 126.609 742.292 125.826 743.553C125.057 744.814 123.926 745.444 122.43 745.444C120.949 745.444 119.817 744.814 119.034 743.553C118.252 742.292 117.86 740.47 117.86 738.087C117.86 735.718 118.252 733.903 119.034 732.642C119.817 731.381 120.949 730.751 122.43 730.751ZM119.349 738.087C119.349 739.777 119.502 741.101 119.81 742.057L124.464 732.85C123.974 732.199 123.297 731.873 122.43 731.873C121.466 731.873 120.711 732.386 120.166 733.411C119.621 734.423 119.349 735.981 119.349 738.087ZM122.43 744.301C123.408 744.301 124.17 743.795 124.715 742.784C125.26 741.759 125.533 740.193 125.533 738.087C125.533 736.3 125.358 734.914 125.009 733.931L120.355 743.22C120.858 743.941 121.55 744.301 122.43 744.301Z" fill="url(#paint42_linear_175_1850)" fill-opacity="0.6"/>
<path d="M123.688 767.886H126.769V768.987H118.783V767.886H122.346V756.206L118.95 758.222L118.363 757.287L122.556 754.71H123.688V767.886Z" fill="url(#paint43_linear_175_1850)" fill-opacity="0.6"/>
<path d="M123.688 791.637H126.769V792.738H118.783V791.637H122.346V779.957L118.95 781.973L118.363 781.038L122.556 778.461H123.688V791.637Z" fill="url(#paint44_linear_175_1850)" fill-opacity="0.6"/>
<path d="M122.43 802.004C123.926 802.004 125.057 802.635 125.826 803.895C126.609 805.142 127 806.957 127 809.34C127 811.723 126.609 813.545 125.826 814.806C125.057 816.067 123.926 816.697 122.43 816.697C120.949 816.697 119.817 816.067 119.034 814.806C118.252 813.545 117.86 811.723 117.86 809.34C117.86 806.971 118.252 805.156 119.034 803.895C119.817 802.635 120.949 802.004 122.43 802.004ZM119.349 809.34C119.349 811.031 119.502 812.354 119.81 813.31L124.464 804.103C123.974 803.452 123.297 803.126 122.43 803.126C121.466 803.126 120.711 803.639 120.166 804.664C119.621 805.676 119.349 807.234 119.349 809.34ZM122.43 815.554C123.408 815.554 124.17 815.049 124.715 814.037C125.26 813.012 125.533 811.446 125.533 809.34C125.533 807.553 125.358 806.168 125.009 805.184L120.355 814.474C120.858 815.194 121.55 815.554 122.43 815.554Z" fill="url(#paint45_linear_175_1850)" fill-opacity="0.6"/>
<path d="M122.43 825.755C123.926 825.755 125.057 826.386 125.826 827.646C126.609 828.893 127 830.708 127 833.091C127 835.474 126.609 837.296 125.826 838.557C125.057 839.818 123.926 840.448 122.43 840.448C120.949 840.448 119.817 839.818 119.034 838.557C118.252 837.296 117.86 835.474 117.86 833.091C117.86 830.722 118.252 828.907 119.034 827.646C119.817 826.386 120.949 825.755 122.43 825.755ZM119.349 833.091C119.349 834.782 119.502 836.105 119.81 837.061L124.464 827.854C123.974 827.203 123.297 826.878 122.43 826.878C121.466 826.878 120.711 827.39 120.166 828.415C119.621 829.427 119.349 830.985 119.349 833.091ZM122.43 839.305C123.408 839.305 124.17 838.8 124.715 837.788C125.26 836.763 125.533 835.197 125.533 833.091C125.533 831.304 125.358 829.919 125.009 828.935L120.355 838.225C120.858 838.945 121.55 839.305 122.43 839.305Z" fill="url(#paint46_linear_175_1850)" fill-opacity="0.6"/>
<g opacity="0.2" filter="url(#filter1_f_175_1850)">
<ellipse cx="-85.5" cy="56" rx="670.5" ry="350" fill="#B2A659"/>
</g>
<g opacity="0.6">
<path d="M321.93 -8C323.356 -8 324.436 -7.39504 325.17 -6.18512C325.916 -4.9885 326.29 -3.24675 326.29 -0.959873C326.29 1.32701 325.916 3.0754 325.17 4.28532C324.436 5.49524 323.356 6.1002 321.93 6.1002C320.517 6.1002 319.437 5.49524 318.69 4.28532C317.943 3.0754 317.57 1.32701 317.57 -0.959873C317.57 -3.23346 317.943 -4.97521 318.69 -6.18512C319.437 -7.39504 320.517 -8 321.93 -8ZM318.99 -0.959873C318.99 0.662215 319.137 1.93196 319.43 2.84937L323.87 -5.98569C323.403 -6.61059 322.756 -6.92304 321.93 -6.92304C321.01 -6.92304 320.29 -6.43109 319.77 -5.44721C319.25 -4.47661 318.99 -2.98083 318.99 -0.959873ZM321.93 5.00329C322.863 5.00329 323.59 4.518 324.11 3.5474C324.63 2.56351 324.89 1.06109 324.89 -0.959873C324.89 -2.67503 324.723 -4.00461 324.39 -4.94861L319.95 3.96622C320.43 4.6576 321.09 5.00329 321.93 5.00329Z" fill="url(#paint47_linear_175_1850)"/>
<path d="M323.13 27.6365H326.07V28.6936H318.45V27.6365H321.85V16.4282L318.61 18.3627L318.05 17.4653L322.05 14.9922H323.13V27.6365Z" fill="url(#paint48_linear_175_1850)"/>
<path d="M321.93 37.5856C323.356 37.5856 324.436 38.1906 325.17 39.4005C325.916 40.5971 326.29 42.3389 326.29 44.6257C326.29 46.9126 325.916 48.661 325.17 49.8709C324.436 51.0808 323.356 51.6858 321.93 51.6858C320.517 51.6858 319.437 51.0808 318.69 49.8709C317.943 48.661 317.57 46.9126 317.57 44.6257C317.57 42.3522 317.943 40.6104 318.69 39.4005C319.437 38.1906 320.517 37.5856 321.93 37.5856ZM318.99 44.6257C318.99 46.2478 319.137 47.5176 319.43 48.435L323.87 39.5999C323.403 38.975 322.756 38.6626 321.93 38.6626C321.01 38.6626 320.29 39.1545 319.77 40.1384C319.25 41.109 318.99 42.6048 318.99 44.6257ZM321.93 50.5889C322.863 50.5889 323.59 50.1036 324.11 49.133C324.63 48.1491 324.89 46.6467 324.89 44.6257C324.89 42.9106 324.723 41.581 324.39 40.637L319.95 49.5518C320.43 50.2432 321.09 50.5889 321.93 50.5889Z" fill="url(#paint49_linear_175_1850)"/>
<path d="M323.13 73.2221H326.07V74.2792H318.45V73.2221H321.85V62.0138L318.61 63.9483L318.05 63.0509L322.05 60.5778H323.13V73.2221Z" fill="url(#paint50_linear_175_1850)"/>
<path d="M323.13 96.015H326.07V97.072H318.45V96.015H321.85V84.8066L318.61 86.7411L318.05 85.8437L322.05 83.3706H323.13V96.015Z" fill="url(#paint51_linear_175_1850)"/>
<path d="M321.93 105.964C323.356 105.964 324.436 106.569 325.17 107.779C325.916 108.976 326.29 110.717 326.29 113.004C326.29 115.291 325.916 117.039 325.17 118.249C324.436 119.459 323.356 120.064 321.93 120.064C320.517 120.064 319.437 119.459 318.69 118.249C317.943 117.039 317.57 115.291 317.57 113.004C317.57 110.731 317.943 108.989 318.69 107.779C319.437 106.569 320.517 105.964 321.93 105.964ZM318.99 113.004C318.99 114.626 319.137 115.896 319.43 116.813L323.87 107.978C323.403 107.353 322.756 107.041 321.93 107.041C321.01 107.041 320.29 107.533 319.77 108.517C319.25 109.487 318.99 110.983 318.99 113.004ZM321.93 118.967C322.863 118.967 323.59 118.482 324.11 117.511C324.63 116.528 324.89 115.025 324.89 113.004C324.89 111.289 324.723 109.959 324.39 109.015L319.95 117.93C320.43 118.622 321.09 118.967 321.93 118.967Z" fill="url(#paint52_linear_175_1850)"/>
<path d="M323.13 141.601H326.07V142.658H318.45V141.601H321.85V130.392L318.61 132.327L318.05 131.429L322.05 128.956H323.13V141.601Z" fill="url(#paint53_linear_175_1850)"/>
<path d="M321.93 151.55C323.356 151.55 324.436 152.155 325.17 153.365C325.916 154.561 326.29 156.303 326.29 158.59C326.29 160.877 325.916 162.625 325.17 163.835C324.436 165.045 323.356 165.65 321.93 165.65C320.517 165.65 319.437 165.045 318.69 163.835C317.943 162.625 317.57 160.877 317.57 158.59C317.57 156.316 317.943 154.574 318.69 153.365C319.437 152.155 320.517 151.55 321.93 151.55ZM318.99 158.59C318.99 160.212 319.137 161.482 319.43 162.399L323.87 153.564C323.403 152.939 322.756 152.627 321.93 152.627C321.01 152.627 320.29 153.119 319.77 154.102C319.25 155.073 318.99 156.569 318.99 158.59ZM321.93 164.553C322.863 164.553 323.59 164.068 324.11 163.097C324.63 162.113 324.89 160.611 324.89 158.59C324.89 156.875 324.723 155.545 324.39 154.601L319.95 163.516C320.43 164.207 321.09 164.553 321.93 164.553Z" fill="url(#paint54_linear_175_1850)"/>
<path d="M321.93 174.342C323.356 174.342 324.436 174.947 325.17 176.157C325.916 177.354 326.29 179.096 326.29 181.383C326.29 183.669 325.916 185.418 325.17 186.628C324.436 187.838 323.356 188.443 321.93 188.443C320.517 188.443 319.437 187.838 318.69 186.628C317.943 185.418 317.57 183.669 317.57 181.383C317.57 179.109 317.943 177.367 318.69 176.157C319.437 174.947 320.517 174.342 321.93 174.342ZM318.99 181.383C318.99 183.005 319.137 184.274 319.43 185.192L323.87 176.357C323.403 175.732 322.756 175.419 321.93 175.419C321.01 175.419 320.29 175.911 319.77 176.895C319.25 177.866 318.99 179.362 318.99 181.383ZM321.93 187.346C322.863 187.346 323.59 186.86 324.11 185.89C324.63 184.906 324.89 183.404 324.89 181.383C324.89 179.667 324.723 178.338 324.39 177.394L319.95 186.309C320.43 187 321.09 187.346 321.93 187.346Z" fill="url(#paint55_linear_175_1850)"/>
<path d="M323.13 209.979H326.07V211.036H318.45V209.979H321.85V198.771L318.61 200.705L318.05 199.808L322.05 197.335H323.13V209.979Z" fill="url(#paint56_linear_175_1850)"/>
<path d="M321.93 219.928C323.356 219.928 324.436 220.533 325.17 221.743C325.916 222.94 326.29 224.681 326.29 226.968C326.29 229.255 325.916 231.003 325.17 232.213C324.436 233.423 323.356 234.028 321.93 234.028C320.517 234.028 319.437 233.423 318.69 232.213C317.943 231.003 317.57 229.255 317.57 226.968C317.57 224.695 317.943 222.953 318.69 221.743C319.437 220.533 320.517 219.928 321.93 219.928ZM318.99 226.968C318.99 228.59 319.137 229.86 319.43 230.777L323.87 221.942C323.403 221.317 322.756 221.005 321.93 221.005C321.01 221.005 320.29 221.497 319.77 222.481C319.25 223.451 318.99 224.947 318.99 226.968ZM321.93 232.931C322.863 232.931 323.59 232.446 324.11 231.475C324.63 230.492 324.89 228.989 324.89 226.968C324.89 225.253 324.723 223.923 324.39 222.979L319.95 231.894C320.43 232.586 321.09 232.931 321.93 232.931Z" fill="url(#paint57_linear_175_1850)"/>
<path d="M323.13 255.565H326.07V256.622H318.45V255.565H321.85V244.356L318.61 246.291L318.05 245.393L322.05 242.92H323.13V255.565Z" fill="url(#paint58_linear_175_1850)"/>
<path d="M323.13 278.357H326.07V279.414H318.45V278.357H321.85V267.149L318.61 269.084L318.05 268.186L322.05 265.713H323.13V278.357Z" fill="url(#paint59_linear_175_1850)"/>
<path d="M359.07 37.5856C360.497 37.5856 361.577 38.1906 362.31 39.4005C363.057 40.5971 363.43 42.3389 363.43 44.6257C363.43 46.9126 363.057 48.661 362.31 49.8709C361.577 51.0808 360.497 51.6858 359.07 51.6858C357.657 51.6858 356.577 51.0808 355.83 49.8709C355.084 48.661 354.71 46.9126 354.71 44.6257C354.71 42.3522 355.084 40.6104 355.83 39.4005C356.577 38.1906 357.657 37.5856 359.07 37.5856ZM356.13 44.6257C356.13 46.2478 356.277 47.5176 356.57 48.435L361.01 39.5999C360.543 38.975 359.897 38.6626 359.07 38.6626C358.15 38.6626 357.43 39.1545 356.91 40.1384C356.39 41.109 356.13 42.6048 356.13 44.6257ZM359.07 50.5889C360.003 50.5889 360.73 50.1036 361.25 49.133C361.77 48.1491 362.03 46.6467 362.03 44.6257C362.03 42.9106 361.863 41.581 361.53 40.637L357.09 49.5518C357.57 50.2432 358.23 50.5889 359.07 50.5889Z" fill="url(#paint60_linear_175_1850)"/>
<path d="M360.27 73.2221H363.21V74.2792H355.59V73.2221H358.99V62.0138L355.75 63.9483L355.19 63.0509L359.19 60.5778H360.27V73.2221Z" fill="url(#paint61_linear_175_1850)"/>
<path d="M359.07 83.1712C360.497 83.1712 361.577 83.7762 362.31 84.9861C363.057 86.1827 363.43 87.9245 363.43 90.2113C363.43 92.4982 363.057 94.2466 362.31 95.4565C361.577 96.6664 360.497 97.2714 359.07 97.2714C357.657 97.2714 356.577 96.6664 355.83 95.4565C355.084 94.2466 354.71 92.4982 354.71 90.2113C354.71 87.9378 355.084 86.196 355.83 84.9861C356.577 83.7762 357.657 83.1712 359.07 83.1712ZM356.13 90.2113C356.13 91.8334 356.277 93.1032 356.57 94.0206L361.01 85.1855C360.543 84.5606 359.897 84.2482 359.07 84.2482C358.15 84.2482 357.43 84.7401 356.91 85.724C356.39 86.6946 356.13 88.1904 356.13 90.2113ZM359.07 96.1745C360.003 96.1745 360.73 95.6892 361.25 94.7186C361.77 93.7347 362.03 92.2323 362.03 90.2113C362.03 88.4962 361.863 87.1666 361.53 86.2226L357.09 95.1374C357.57 95.8288 358.23 96.1745 359.07 96.1745Z" fill="url(#paint62_linear_175_1850)"/>
<path d="M359.07 105.964C360.497 105.964 361.577 106.569 362.31 107.779C363.057 108.976 363.43 110.717 363.43 113.004C363.43 115.291 363.057 117.039 362.31 118.249C361.577 119.459 360.497 120.064 359.07 120.064C357.657 120.064 356.577 119.459 355.83 118.249C355.084 117.039 354.71 115.291 354.71 113.004C354.71 110.731 355.084 108.989 355.83 107.779C356.577 106.569 357.657 105.964 359.07 105.964ZM356.13 113.004C356.13 114.626 356.277 115.896 356.57 116.813L361.01 107.978C360.543 107.353 359.897 107.041 359.07 107.041C358.15 107.041 357.43 107.533 356.91 108.517C356.39 109.487 356.13 110.983 356.13 113.004ZM359.07 118.967C360.003 118.967 360.73 118.482 361.25 117.511C361.77 116.528 362.03 115.025 362.03 113.004C362.03 111.289 361.863 109.959 361.53 109.015L357.09 117.93C357.57 118.622 358.23 118.967 359.07 118.967Z" fill="url(#paint63_linear_175_1850)"/>
<path d="M360.27 141.601H363.21V142.658H355.59V141.601H358.99V130.392L355.75 132.327L355.19 131.429L359.19 128.956H360.27V141.601Z" fill="url(#paint64_linear_175_1850)"/>
<path d="M359.07 151.55C360.497 151.55 361.577 152.155 362.31 153.365C363.057 154.561 363.43 156.303 363.43 158.59C363.43 160.877 363.057 162.625 362.31 163.835C361.577 165.045 360.497 165.65 359.07 165.65C357.657 165.65 356.577 165.045 355.83 163.835C355.084 162.625 354.71 160.877 354.71 158.59C354.71 156.316 355.084 154.574 355.83 153.365C356.577 152.155 357.657 151.55 359.07 151.55ZM356.13 158.59C356.13 160.212 356.277 161.482 356.57 162.399L361.01 153.564C360.543 152.939 359.897 152.627 359.07 152.627C358.15 152.627 357.43 153.119 356.91 154.102C356.39 155.073 356.13 156.569 356.13 158.59ZM359.07 164.553C360.003 164.553 360.73 164.068 361.25 163.097C361.77 162.113 362.03 160.611 362.03 158.59C362.03 156.875 361.863 155.545 361.53 154.601L357.09 163.516C357.57 164.207 358.23 164.553 359.07 164.553Z" fill="url(#paint65_linear_175_1850)"/>
<path d="M360.27 187.186H363.21V188.243H355.59V187.186H358.99V175.978L355.75 177.912L355.19 177.015L359.19 174.542H360.27V187.186Z" fill="url(#paint66_linear_175_1850)"/>
<path d="M359.07 197.135C360.497 197.135 361.577 197.74 362.31 198.95C363.057 200.147 363.43 201.888 363.43 204.175C363.43 206.462 363.057 208.211 362.31 209.421C361.577 210.63 360.497 211.235 359.07 211.235C357.657 211.235 356.577 210.63 355.83 209.421C355.084 208.211 354.71 206.462 354.71 204.175C354.71 201.902 355.084 200.16 355.83 198.95C356.577 197.74 357.657 197.135 359.07 197.135ZM356.13 204.175C356.13 205.797 356.277 207.067 356.57 207.985L361.01 199.15C360.543 198.525 359.897 198.212 359.07 198.212C358.15 198.212 357.43 198.704 356.91 199.688C356.39 200.659 356.13 202.154 356.13 204.175ZM359.07 210.139C360.003 210.139 360.73 209.653 361.25 208.683C361.77 207.699 362.03 206.196 362.03 204.175C362.03 202.46 361.863 201.131 361.53 200.187L357.09 209.101C357.57 209.793 358.23 210.139 359.07 210.139Z" fill="url(#paint67_linear_175_1850)"/>
<path d="M359.07 219.928C360.497 219.928 361.577 220.533 362.31 221.743C363.057 222.94 363.43 224.681 363.43 226.968C363.43 229.255 363.057 231.003 362.31 232.213C361.577 233.423 360.497 234.028 359.07 234.028C357.657 234.028 356.577 233.423 355.83 232.213C355.084 231.003 354.71 229.255 354.71 226.968C354.71 224.695 355.084 222.953 355.83 221.743C356.577 220.533 357.657 219.928 359.07 219.928ZM356.13 226.968C356.13 228.59 356.277 229.86 356.57 230.777L361.01 221.942C360.543 221.317 359.897 221.005 359.07 221.005C358.15 221.005 357.43 221.497 356.91 222.481C356.39 223.451 356.13 224.947 356.13 226.968ZM359.07 232.931C360.003 232.931 360.73 232.446 361.25 231.475C361.77 230.492 362.03 228.989 362.03 226.968C362.03 225.253 361.863 223.923 361.53 222.979L357.09 231.894C357.57 232.586 358.23 232.931 359.07 232.931Z" fill="url(#paint68_linear_175_1850)"/>
<path d="M360.27 255.565H363.21V256.622H355.59V255.565H358.99V244.356L355.75 246.291L355.19 245.393L359.19 242.92H360.27V255.565Z" fill="url(#paint69_linear_175_1850)"/>
<path d="M359.07 265.514C360.497 265.514 361.577 266.119 362.31 267.329C363.057 268.525 363.43 270.267 363.43 272.554C363.43 274.841 363.057 276.589 362.31 277.799C361.577 279.009 360.497 279.614 359.07 279.614C357.657 279.614 356.577 279.009 355.83 277.799C355.084 276.589 354.71 274.841 354.71 272.554C354.71 270.28 355.084 268.538 355.83 267.329C356.577 266.119 357.657 265.514 359.07 265.514ZM356.13 272.554C356.13 274.176 356.277 275.446 356.57 276.363L361.01 267.528C360.543 266.903 359.897 266.591 359.07 266.591C358.15 266.591 357.43 267.083 356.91 268.066C356.39 269.037 356.13 270.533 356.13 272.554ZM359.07 278.517C360.003 278.517 360.73 278.032 361.25 277.061C361.77 276.077 362.03 274.575 362.03 272.554C362.03 270.839 361.863 269.509 361.53 268.565L357.09 277.48C357.57 278.171 358.23 278.517 359.07 278.517Z" fill="url(#paint70_linear_175_1850)"/>
<path d="M360.27 301.15H363.21V302.207H355.59V301.15H358.99V289.942L355.75 291.876L355.19 290.979L359.19 288.506H360.27V301.15Z" fill="url(#paint71_linear_175_1850)"/>
<path d="M360.27 323.943H363.21V325H355.59V323.943H358.99V312.735L355.75 314.669L355.19 313.772L359.19 311.299H360.27V323.943Z" fill="url(#paint72_linear_175_1850)"/>
<path d="M303.36 60.3784C304.786 60.3784 305.866 60.9834 306.599 62.1933C307.346 63.3899 307.719 65.1317 307.719 67.4185C307.719 69.7054 307.346 71.4538 306.599 72.6637C305.866 73.8736 304.786 74.4786 303.36 74.4786C301.946 74.4786 300.867 73.8736 300.12 72.6637C299.373 71.4538 299 69.7054 299 67.4185C299 65.145 299.373 63.4032 300.12 62.1933C300.867 60.9834 301.946 60.3784 303.36 60.3784ZM300.42 67.4185C300.42 69.0406 300.567 70.3104 300.86 71.2278L305.3 62.3927C304.833 61.7678 304.186 61.4554 303.36 61.4554C302.44 61.4554 301.72 61.9473 301.2 62.9312C300.68 63.9018 300.42 65.3976 300.42 67.4185ZM303.36 73.3817C304.293 73.3817 305.02 72.8964 305.54 71.9258C306.06 70.9419 306.319 69.4395 306.319 67.4185C306.319 65.7034 306.153 64.3738 305.82 63.4298L301.38 72.3446C301.86 73.036 302.52 73.3817 303.36 73.3817Z" fill="url(#paint73_linear_175_1850)"/>
<path d="M303.36 83.1712C304.786 83.1712 305.866 83.7762 306.599 84.9861C307.346 86.1827 307.719 87.9245 307.719 90.2113C307.719 92.4982 307.346 94.2466 306.599 95.4565C305.866 96.6664 304.786 97.2714 303.36 97.2714C301.946 97.2714 300.867 96.6664 300.12 95.4565C299.373 94.2466 299 92.4982 299 90.2113C299 87.9378 299.373 86.196 300.12 84.9861C300.867 83.7762 301.946 83.1712 303.36 83.1712ZM300.42 90.2113C300.42 91.8334 300.567 93.1032 300.86 94.0206L305.3 85.1855C304.833 84.5606 304.186 84.2482 303.36 84.2482C302.44 84.2482 301.72 84.7401 301.2 85.724C300.68 86.6946 300.42 88.1904 300.42 90.2113ZM303.36 96.1745C304.293 96.1745 305.02 95.6892 305.54 94.7186C306.06 93.7347 306.319 92.2323 306.319 90.2113C306.319 88.4962 306.153 87.1666 305.82 86.2226L301.38 95.1374C301.86 95.8288 302.52 96.1745 303.36 96.1745Z" fill="url(#paint74_linear_175_1850)"/>
<path d="M304.56 118.808H307.499V119.865H299.88V118.808H303.28V107.599L300.04 109.534L299.48 108.636L303.48 106.163H304.56V118.808Z" fill="url(#paint75_linear_175_1850)"/>
<path d="M303.36 128.757C304.786 128.757 305.866 129.362 306.599 130.572C307.346 131.768 307.719 133.51 307.719 135.797C307.719 138.084 307.346 139.832 306.599 141.042C305.866 142.252 304.786 142.857 303.36 142.857C301.946 142.857 300.867 142.252 300.12 141.042C299.373 139.832 299 138.084 299 135.797C299 133.523 299.373 131.782 300.12 130.572C300.867 129.362 301.946 128.757 303.36 128.757ZM300.42 135.797C300.42 137.419 300.567 138.689 300.86 139.606L305.3 130.771C304.833 130.146 304.186 129.834 303.36 129.834C302.44 129.834 301.72 130.326 301.2 131.31C300.68 132.28 300.42 133.776 300.42 135.797ZM303.36 141.76C304.293 141.76 305.02 141.275 305.54 140.304C306.06 139.32 306.319 137.818 306.319 135.797C306.319 134.082 306.153 132.752 305.82 131.808L301.38 140.723C301.86 141.414 302.52 141.76 303.36 141.76Z" fill="url(#paint76_linear_175_1850)"/>
<path d="M304.56 164.393H307.499V165.45H299.88V164.393H303.28V153.185L300.04 155.12L299.48 154.222L303.48 151.749H304.56V164.393Z" fill="url(#paint77_linear_175_1850)"/>
<path d="M304.56 187.186H307.499V188.243H299.88V187.186H303.28V175.978L300.04 177.912L299.48 177.015L303.48 174.542H304.56V187.186Z" fill="url(#paint78_linear_175_1850)"/>
<path d="M341.7 27.6365H344.64V28.6936H337.02V27.6365H340.42V16.4282L337.18 18.3627L336.62 17.4653L340.62 14.9922H341.7V27.6365Z" fill="url(#paint79_linear_175_1850)"/>
<path d="M340.5 37.5856C341.927 37.5856 343.006 38.1906 343.74 39.4005C344.486 40.5971 344.86 42.3389 344.86 44.6257C344.86 46.9126 344.486 48.661 343.74 49.8709C343.006 51.0808 341.927 51.6858 340.5 51.6858C339.087 51.6858 338.007 51.0808 337.26 49.8709C336.514 48.661 336.14 46.9126 336.14 44.6257C336.14 42.3522 336.514 40.6104 337.26 39.4005C338.007 38.1906 339.087 37.5856 340.5 37.5856ZM337.56 44.6257C337.56 46.2478 337.707 47.5176 338 48.435L342.44 39.5999C341.973 38.975 341.327 38.6626 340.5 38.6626C339.58 38.6626 338.86 39.1545 338.34 40.1384C337.82 41.109 337.56 42.6048 337.56 44.6257ZM340.5 50.5889C341.433 50.5889 342.16 50.1036 342.68 49.133C343.2 48.1491 343.46 46.6467 343.46 44.6257C343.46 42.9106 343.293 41.581 342.96 40.637L338.52 49.5518C339 50.2432 339.66 50.5889 340.5 50.5889Z" fill="url(#paint80_linear_175_1850)"/>
<path d="M341.7 73.2221H344.64V74.2792H337.02V73.2221H340.42V62.0138L337.18 63.9483L336.62 63.0509L340.62 60.5778H341.7V73.2221Z" fill="url(#paint81_linear_175_1850)"/>
<path d="M341.7 96.015H344.64V97.072H337.02V96.015H340.42V84.8066L337.18 86.7411L336.62 85.8437L340.62 83.3706H341.7V96.015Z" fill="url(#paint82_linear_175_1850)"/>
<path d="M340.5 105.964C341.927 105.964 343.006 106.569 343.74 107.779C344.486 108.976 344.86 110.717 344.86 113.004C344.86 115.291 344.486 117.039 343.74 118.249C343.006 119.459 341.927 120.064 340.5 120.064C339.087 120.064 338.007 119.459 337.26 118.249C336.514 117.039 336.14 115.291 336.14 113.004C336.14 110.731 336.514 108.989 337.26 107.779C338.007 106.569 339.087 105.964 340.5 105.964ZM337.56 113.004C337.56 114.626 337.707 115.896 338 116.813L342.44 107.978C341.973 107.353 341.327 107.041 340.5 107.041C339.58 107.041 338.86 107.533 338.34 108.517C337.82 109.487 337.56 110.983 337.56 113.004ZM340.5 118.967C341.433 118.967 342.16 118.482 342.68 117.511C343.2 116.528 343.46 115.025 343.46 113.004C343.46 111.289 343.293 109.959 342.96 109.015L338.52 117.93C339 118.622 339.66 118.967 340.5 118.967Z" fill="url(#paint83_linear_175_1850)"/>
<path d="M341.7 141.601H344.64V142.658H337.02V141.601H340.42V130.392L337.18 132.327L336.62 131.429L340.62 128.956H341.7V141.601Z" fill="url(#paint84_linear_175_1850)"/>
<path d="M341.7 164.393H344.64V165.45H337.02V164.393H340.42V153.185L337.18 155.12L336.62 154.222L340.62 151.749H341.7V164.393Z" fill="url(#paint85_linear_175_1850)"/>
<path d="M340.5 174.342C341.927 174.342 343.006 174.947 343.74 176.157C344.486 177.354 344.86 179.096 344.86 181.383C344.86 183.669 344.486 185.418 343.74 186.628C343.006 187.838 341.927 188.443 340.5 188.443C339.087 188.443 338.007 187.838 337.26 186.628C336.514 185.418 336.14 183.669 336.14 181.383C336.14 179.109 336.514 177.367 337.26 176.157C338.007 174.947 339.087 174.342 340.5 174.342ZM337.56 181.383C337.56 183.005 337.707 184.274 338 185.192L342.44 176.357C341.973 175.732 341.327 175.419 340.5 175.419C339.58 175.419 338.86 175.911 338.34 176.895C337.82 177.866 337.56 179.362 337.56 181.383ZM340.5 187.346C341.433 187.346 342.16 186.86 342.68 185.89C343.2 184.906 343.46 183.404 343.46 181.383C343.46 179.667 343.293 178.338 342.96 177.394L338.52 186.309C339 187 339.66 187.346 340.5 187.346Z" fill="url(#paint86_linear_175_1850)"/>
<path d="M341.7 209.979H344.64V211.036H337.02V209.979H340.42V198.771L337.18 200.705L336.62 199.808L340.62 197.335H341.7V209.979Z" fill="url(#paint87_linear_175_1850)"/>
<path d="M340.5 219.928C341.927 219.928 343.006 220.533 343.74 221.743C344.486 222.94 344.86 224.681 344.86 226.968C344.86 229.255 344.486 231.003 343.74 232.213C343.006 233.423 341.927 234.028 340.5 234.028C339.087 234.028 338.007 233.423 337.26 232.213C336.514 231.003 336.14 229.255 336.14 226.968C336.14 224.695 336.514 222.953 337.26 221.743C338.007 220.533 339.087 219.928 340.5 219.928ZM337.56 226.968C337.56 228.59 337.707 229.86 338 230.777L342.44 221.942C341.973 221.317 341.327 221.005 340.5 221.005C339.58 221.005 338.86 221.497 338.34 222.481C337.82 223.451 337.56 224.947 337.56 226.968ZM340.5 232.931C341.433 232.931 342.16 232.446 342.68 231.475C343.2 230.492 343.46 228.989 343.46 226.968C343.46 225.253 343.293 223.923 342.96 222.979L338.52 231.894C339 232.586 339.66 232.931 340.5 232.931Z" fill="url(#paint88_linear_175_1850)"/>
<path d="M377.64 14.7928C379.067 14.7928 380.147 15.3978 380.88 16.6077C381.627 17.8043 382 19.5461 382 21.8329C382 24.1198 381.627 25.8682 380.88 27.0781C380.147 28.288 379.067 28.893 377.64 28.893C376.227 28.893 375.147 28.288 374.401 27.0781C373.654 25.8682 373.281 24.1198 373.281 21.8329C373.281 19.5593 373.654 17.8176 374.401 16.6077C375.147 15.3978 376.227 14.7928 377.64 14.7928ZM374.7 21.8329C374.7 23.455 374.847 24.7248 375.14 25.6422L379.58 16.8071C379.114 16.1822 378.467 15.8698 377.64 15.8698C376.72 15.8698 376 16.3617 375.48 17.3456C374.96 18.3162 374.7 19.812 374.7 21.8329ZM377.64 27.7961C378.574 27.7961 379.3 27.3108 379.82 26.3402C380.34 25.3563 380.6 23.8539 380.6 21.8329C380.6 20.1178 380.433 18.7882 380.1 17.8442L375.66 26.759C376.14 27.4504 376.8 27.7961 377.64 27.7961Z" fill="url(#paint89_linear_175_1850)"/>
<path d="M378.84 50.4293H381.78V51.4864H374.161V50.4293H377.56V39.221L374.321 41.1555L373.761 40.2581L377.76 37.785H378.84V50.4293Z" fill="url(#paint90_linear_175_1850)"/>
<path d="M378.84 73.2221H381.78V74.2792H374.161V73.2221H377.56V62.0138L374.321 63.9483L373.761 63.0509L377.76 60.5778H378.84V73.2221Z" fill="url(#paint91_linear_175_1850)"/>
<path d="M377.64 83.1712C379.067 83.1712 380.147 83.7762 380.88 84.9861C381.627 86.1827 382 87.9245 382 90.2113C382 92.4982 381.627 94.2466 380.88 95.4565C380.147 96.6664 379.067 97.2714 377.64 97.2714C376.227 97.2714 375.147 96.6664 374.401 95.4565C373.654 94.2466 373.281 92.4982 373.281 90.2113C373.281 87.9378 373.654 86.196 374.401 84.9861C375.147 83.7762 376.227 83.1712 377.64 83.1712ZM374.7 90.2113C374.7 91.8334 374.847 93.1032 375.14 94.0206L379.58 85.1855C379.114 84.5606 378.467 84.2482 377.64 84.2482C376.72 84.2482 376 84.7401 375.48 85.724C374.96 86.6946 374.7 88.1904 374.7 90.2113ZM377.64 96.1745C378.574 96.1745 379.3 95.6892 379.82 94.7186C380.34 93.7347 380.6 92.2323 380.6 90.2113C380.6 88.4962 380.433 87.1666 380.1 86.2226L375.66 95.1374C376.14 95.8288 376.8 96.1745 377.64 96.1745Z" fill="url(#paint92_linear_175_1850)"/>
<path d="M377.64 105.964C379.067 105.964 380.147 106.569 380.88 107.779C381.627 108.976 382 110.717 382 113.004C382 115.291 381.627 117.039 380.88 118.249C380.147 119.459 379.067 120.064 377.64 120.064C376.227 120.064 375.147 119.459 374.401 118.249C373.654 117.039 373.281 115.291 373.281 113.004C373.281 110.731 373.654 108.989 374.401 107.779C375.147 106.569 376.227 105.964 377.64 105.964ZM374.7 113.004C374.7 114.626 374.847 115.896 375.14 116.813L379.58 107.978C379.114 107.353 378.467 107.041 377.64 107.041C376.72 107.041 376 107.533 375.48 108.517C374.96 109.487 374.7 110.983 374.7 113.004ZM377.64 118.967C378.574 118.967 379.3 118.482 379.82 117.511C380.34 116.528 380.6 115.025 380.6 113.004C380.6 111.289 380.433 109.959 380.1 109.015L375.66 117.93C376.14 118.622 376.8 118.967 377.64 118.967Z" fill="url(#paint93_linear_175_1850)"/>
</g>
</g>
<defs>
<filter id="filter0_f_175_1850" x="-527.19" y="-279.19" width="2141.38" height="1500.38" filterUnits="userSpaceOnUse" color-interpolation-filters="sRGB">
<feFlood flood-opacity="0" result="BackgroundImageFix"/>
<feBlend mode="normal" in="SourceGraphic" in2="BackgroundImageFix" result="shape"/>
<feGaussianBlur stdDeviation="200.095" result="effect1_foregroundBlur_175_1850"/>
</filter>
<filter id="filter1_f_175_1850" x="-1156.19" y="-694.19" width="2141.38" height="1500.38" filterUnits="userSpaceOnUse" color-interpolation-filters="sRGB">
<feFlood flood-opacity="0" result="BackgroundImageFix"/>
<feBlend mode="normal" in="SourceGraphic" in2="BackgroundImageFix" result="shape"/>
<feGaussianBlur stdDeviation="200.095" result="effect1_foregroundBlur_175_1850"/>
</filter>
<linearGradient id="paint0_linear_175_1850" x1="83.5" y1="707" x2="83.5" y2="1018.38" gradientUnits="userSpaceOnUse">
<stop stop-color="#F7DD43"/>
<stop offset="1" stop-color="#F7DD43" stop-opacity="0"/>
</linearGradient>
<linearGradient id="paint1_linear_175_1850" x1="83.5" y1="707" x2="83.5" y2="1018.38" gradientUnits="userSpaceOnUse">
<stop stop-color="#F7DD43"/>
<stop offset="1" stop-color="#F7DD43" stop-opacity="0"/>
</linearGradient>
<linearGradient id="paint2_linear_175_1850" x1="83.5" y1="707" x2="83.5" y2="1018.38" gradientUnits="userSpaceOnUse">
<stop stop-color="#F7DD43"/>
<stop offset="1" stop-color="#F7DD43" stop-opacity="0"/>
</linearGradient>
<linearGradient id="paint3_linear_175_1850" x1="83.5" y1="707" x2="83.5" y2="1018.38" gradientUnits="userSpaceOnUse">
<stop stop-color="#F7DD43"/>
<stop offset="1" stop-color="#F7DD43" stop-opacity="0"/>
</linearGradient>
<linearGradient id="paint4_linear_175_1850" x1="83.5" y1="707" x2="83.5" y2="1018.38" gradientUnits="userSpaceOnUse">
<stop stop-color="#F7DD43"/>
<stop offset="1" stop-color="#F7DD43" stop-opacity="0"/>
</linearGradient>
<linearGradient id="paint5_linear_175_1850" x1="83.5" y1="707" x2="83.5" y2="1018.38" gradientUnits="userSpaceOnUse">
<stop stop-color="#F7DD43"/>
<stop offset="1" stop-color="#F7DD43" stop-opacity="0"/>
</linearGradient>
<linearGradient id="paint6_linear_175_1850" x1="83.5" y1="707" x2="83.5" y2="1018.38" gradientUnits="userSpaceOnUse">
<stop stop-color="#F7DD43"/>
<stop offset="1" stop-color="#F7DD43" stop-opacity="0"/>
</linearGradient>
<linearGradient id="paint7_linear_175_1850" x1="83.5" y1="707" x2="83.5" y2="1018.38" gradientUnits="userSpaceOnUse">
<stop stop-color="#F7DD43"/>
<stop offset="1" stop-color="#F7DD43" stop-opacity="0"/>
</linearGradient>
<linearGradient id="paint8_linear_175_1850" x1="83.5" y1="707" x2="83.5" y2="1018.38" gradientUnits="userSpaceOnUse">
<stop stop-color="#F7DD43"/>
<stop offset="1" stop-color="#F7DD43" stop-opacity="0"/>
</linearGradient>
<linearGradient id="paint9_linear_175_1850" x1="83.5" y1="707" x2="83.5" y2="1018.38" gradientUnits="userSpaceOnUse">
<stop stop-color="#F7DD43"/>
<stop offset="1" stop-color="#F7DD43" stop-opacity="0"/>
</linearGradient>
<linearGradient id="paint10_linear_175_1850" x1="83.5" y1="707" x2="83.5" y2="1018.38" gradientUnits="userSpaceOnUse">
<stop stop-color="#F7DD43"/>
<stop offset="1" stop-color="#F7DD43" stop-opacity="0"/>
</linearGradient>
<linearGradient id="paint11_linear_175_1850" x1="83.5" y1="707" x2="83.5" y2="1018.38" gradientUnits="userSpaceOnUse">
<stop stop-color="#F7DD43"/>
<stop offset="1" stop-color="#F7DD43" stop-opacity="0"/>
</linearGradient>
<linearGradient id="paint12_linear_175_1850" x1="83.5" y1="707" x2="83.5" y2="1018.38" gradientUnits="userSpaceOnUse">
<stop stop-color="#F7DD43"/>
<stop offset="1" stop-color="#F7DD43" stop-opacity="0"/>
</linearGradient>
<linearGradient id="paint13_linear_175_1850" x1="83.5" y1="707" x2="83.5" y2="1018.38" gradientUnits="userSpaceOnUse">
<stop stop-color="#F7DD43"/>
<stop offset="1" stop-color="#F7DD43" stop-opacity="0"/>
</linearGradient>
<linearGradient id="paint14_linear_175_1850" x1="83.5" y1="707" x2="83.5" y2="1018.38" gradientUnits="userSpaceOnUse">
<stop stop-color="#F7DD43"/>
<stop offset="1" stop-color="#F7DD43" stop-opacity="0"/>
</linearGradient>
<linearGradient id="paint15_linear_175_1850" x1="83.5" y1="707" x2="83.5" y2="1018.38" gradientUnits="userSpaceOnUse">
<stop stop-color="#F7DD43"/>
<stop offset="1" stop-color="#F7DD43" stop-opacity="0"/>
</linearGradient>
<linearGradient id="paint16_linear_175_1850" x1="83.5" y1="707" x2="83.5" y2="1018.38" gradientUnits="userSpaceOnUse">
<stop stop-color="#F7DD43"/>
<stop offset="1" stop-color="#F7DD43" stop-opacity="0"/>
</linearGradient>
<linearGradient id="paint17_linear_175_1850" x1="83.5" y1="707" x2="83.5" y2="1018.38" gradientUnits="userSpaceOnUse">
<stop stop-color="#F7DD43"/>
<stop offset="1" stop-color="#F7DD43" stop-opacity="0"/>
</linearGradient>
<linearGradient id="paint18_linear_175_1850" x1="83.5" y1="707" x2="83.5" y2="1018.38" gradientUnits="userSpaceOnUse">
<stop stop-color="#F7DD43"/>
<stop offset="1" stop-color="#F7DD43" stop-opacity="0"/>
</linearGradient>
<linearGradient id="paint19_linear_175_1850" x1="83.5" y1="707" x2="83.5" y2="1018.38" gradientUnits="userSpaceOnUse">
<stop stop-color="#F7DD43"/>
<stop offset="1" stop-color="#F7DD43" stop-opacity="0"/>
</linearGradient>
<linearGradient id="paint20_linear_175_1850" x1="83.5" y1="707" x2="83.5" y2="1018.38" gradientUnits="userSpaceOnUse">
<stop stop-color="#F7DD43"/>
<stop offset="1" stop-color="#F7DD43" stop-opacity="0"/>
</linearGradient>
<linearGradient id="paint21_linear_175_1850" x1="83.5" y1="707" x2="83.5" y2="1018.38" gradientUnits="userSpaceOnUse">
<stop stop-color="#F7DD43"/>
<stop offset="1" stop-color="#F7DD43" stop-opacity="0"/>
</linearGradient>
<linearGradient id="paint22_linear_175_1850" x1="83.5" y1="707" x2="83.5" y2="1018.38" gradientUnits="userSpaceOnUse">
<stop stop-color="#F7DD43"/>
<stop offset="1" stop-color="#F7DD43" stop-opacity="0"/>
</linearGradient>
<linearGradient id="paint23_linear_175_1850" x1="83.5" y1="707" x2="83.5" y2="1018.38" gradientUnits="userSpaceOnUse">
<stop stop-color="#F7DD43"/>
<stop offset="1" stop-color="#F7DD43" stop-opacity="0"/>
</linearGradient>
<linearGradient id="paint24_linear_175_1850" x1="83.5" y1="707" x2="83.5" y2="1018.38" gradientUnits="userSpaceOnUse">
<stop stop-color="#F7DD43"/>
<stop offset="1" stop-color="#F7DD43" stop-opacity="0"/>
</linearGradient>
<linearGradient id="paint25_linear_175_1850" x1="83.5" y1="707" x2="83.5" y2="1018.38" gradientUnits="userSpaceOnUse">
<stop stop-color="#F7DD43"/>
<stop offset="1" stop-color="#F7DD43" stop-opacity="0"/>
</linearGradient>
<linearGradient id="paint26_linear_175_1850" x1="83.5" y1="707" x2="83.5" y2="1018.38" gradientUnits="userSpaceOnUse">
<stop stop-color="#F7DD43"/>
<stop offset="1" stop-color="#F7DD43" stop-opacity="0"/>
</linearGradient>
<linearGradient id="paint27_linear_175_1850" x1="83.5" y1="707" x2="83.5" y2="1018.38" gradientUnits="userSpaceOnUse">
<stop stop-color="#F7DD43"/>
<stop offset="1" stop-color="#F7DD43" stop-opacity="0"/>
</linearGradient>
<linearGradient id="paint28_linear_175_1850" x1="83.5" y1="707" x2="83.5" y2="1018.38" gradientUnits="userSpaceOnUse">
<stop stop-color="#F7DD43"/>
<stop offset="1" stop-color="#F7DD43" stop-opacity="0"/>
</linearGradient>
<linearGradient id="paint29_linear_175_1850" x1="83.5" y1="707" x2="83.5" y2="1018.38" gradientUnits="userSpaceOnUse">
<stop stop-color="#F7DD43"/>
<stop offset="1" stop-color="#F7DD43" stop-opacity="0"/>
</linearGradient>
<linearGradient id="paint30_linear_175_1850" x1="83.5" y1="707" x2="83.5" y2="1018.38" gradientUnits="userSpaceOnUse">
<stop stop-color="#F7DD43"/>
<stop offset="1" stop-color="#F7DD43" stop-opacity="0"/>
</linearGradient>
<linearGradient id="paint31_linear_175_1850" x1="83.5" y1="707" x2="83.5" y2="1018.38" gradientUnits="userSpaceOnUse">
<stop stop-color="#F7DD43"/>
<stop offset="1" stop-color="#F7DD43" stop-opacity="0"/>
</linearGradient>
<linearGradient id="paint32_linear_175_1850" x1="83.5" y1="707" x2="83.5" y2="1018.38" gradientUnits="userSpaceOnUse">
<stop stop-color="#F7DD43"/>
<stop offset="1" stop-color="#F7DD43" stop-opacity="0"/>
</linearGradient>
<linearGradient id="paint33_linear_175_1850" x1="83.5" y1="707" x2="83.5" y2="1018.38" gradientUnits="userSpaceOnUse">
<stop stop-color="#F7DD43"/>
<stop offset="1" stop-color="#F7DD43" stop-opacity="0"/>
</linearGradient>
<linearGradient id="paint34_linear_175_1850" x1="83.5" y1="707" x2="83.5" y2="1018.38" gradientUnits="userSpaceOnUse">
<stop stop-color="#F7DD43"/>
<stop offset="1" stop-color="#F7DD43" stop-opacity="0"/>
</linearGradient>
<linearGradient id="paint35_linear_175_1850" x1="83.5" y1="707" x2="83.5" y2="1018.38" gradientUnits="userSpaceOnUse">
<stop stop-color="#F7DD43"/>
<stop offset="1" stop-color="#F7DD43" stop-opacity="0"/>
</linearGradient>
<linearGradient id="paint36_linear_175_1850" x1="83.5" y1="707" x2="83.5" y2="1018.38" gradientUnits="userSpaceOnUse">
<stop stop-color="#F7DD43"/>
<stop offset="1" stop-color="#F7DD43" stop-opacity="0"/>
</linearGradient>
<linearGradient id="paint37_linear_175_1850" x1="83.5" y1="707" x2="83.5" y2="1018.38" gradientUnits="userSpaceOnUse">
<stop stop-color="#F7DD43"/>
<stop offset="1" stop-color="#F7DD43" stop-opacity="0"/>
</linearGradient>
<linearGradient id="paint38_linear_175_1850" x1="83.5" y1="707" x2="83.5" y2="1018.38" gradientUnits="userSpaceOnUse">
<stop stop-color="#F7DD43"/>
<stop offset="1" stop-color="#F7DD43" stop-opacity="0"/>
</linearGradient>
<linearGradient id="paint39_linear_175_1850" x1="83.5" y1="707" x2="83.5" y2="1018.38" gradientUnits="userSpaceOnUse">
<stop stop-color="#F7DD43"/>
<stop offset="1" stop-color="#F7DD43" stop-opacity="0"/>
</linearGradient>
<linearGradient id="paint40_linear_175_1850" x1="83.5" y1="707" x2="83.5" y2="1018.38" gradientUnits="userSpaceOnUse">
<stop stop-color="#F7DD43"/>
<stop offset="1" stop-color="#F7DD43" stop-opacity="0"/>
</linearGradient>
<linearGradient id="paint41_linear_175_1850" x1="83.5" y1="707" x2="83.5" y2="1018.38" gradientUnits="userSpaceOnUse">
<stop stop-color="#F7DD43"/>
<stop offset="1" stop-color="#F7DD43" stop-opacity="0"/>
</linearGradient>
<linearGradient id="paint42_linear_175_1850" x1="83.5" y1="707" x2="83.5" y2="1018.38" gradientUnits="userSpaceOnUse">
<stop stop-color="#F7DD43"/>
<stop offset="1" stop-color="#F7DD43" stop-opacity="0"/>
</linearGradient>
<linearGradient id="paint43_linear_175_1850" x1="83.5" y1="707" x2="83.5" y2="1018.38" gradientUnits="userSpaceOnUse">
<stop stop-color="#F7DD43"/>
<stop offset="1" stop-color="#F7DD43" stop-opacity="0"/>
</linearGradient>
<linearGradient id="paint44_linear_175_1850" x1="83.5" y1="707" x2="83.5" y2="1018.38" gradientUnits="userSpaceOnUse">
<stop stop-color="#F7DD43"/>
<stop offset="1" stop-color="#F7DD43" stop-opacity="0"/>
</linearGradient>
<linearGradient id="paint45_linear_175_1850" x1="83.5" y1="707" x2="83.5" y2="1018.38" gradientUnits="userSpaceOnUse">
<stop stop-color="#F7DD43"/>
<stop offset="1" stop-color="#F7DD43" stop-opacity="0"/>
</linearGradient>
<linearGradient id="paint46_linear_175_1850" x1="83.5" y1="707" x2="83.5" y2="1018.38" gradientUnits="userSpaceOnUse">
<stop stop-color="#F7DD43"/>
<stop offset="1" stop-color="#F7DD43" stop-opacity="0"/>
</linearGradient>
<linearGradient id="paint47_linear_175_1850" x1="340.5" y1="-8" x2="340.5" y2="290.818" gradientUnits="userSpaceOnUse">
<stop stop-color="#F7DD43"/>
<stop offset="1" stop-color="#F7DD43" stop-opacity="0"/>
</linearGradient>
<linearGradient id="paint48_linear_175_1850" x1="340.5" y1="-8" x2="340.5" y2="290.818" gradientUnits="userSpaceOnUse">
<stop stop-color="#F7DD43"/>
<stop offset="1" stop-color="#F7DD43" stop-opacity="0"/>
</linearGradient>
<linearGradient id="paint49_linear_175_1850" x1="340.5" y1="-8" x2="340.5" y2="290.818" gradientUnits="userSpaceOnUse">
<stop stop-color="#F7DD43"/>
<stop offset="1" stop-color="#F7DD43" stop-opacity="0"/>
</linearGradient>
<linearGradient id="paint50_linear_175_1850" x1="340.5" y1="-8" x2="340.5" y2="290.818" gradientUnits="userSpaceOnUse">
<stop stop-color="#F7DD43"/>
<stop offset="1" stop-color="#F7DD43" stop-opacity="0"/>
</linearGradient>
<linearGradient id="paint51_linear_175_1850" x1="340.5" y1="-8" x2="340.5" y2="290.818" gradientUnits="userSpaceOnUse">
<stop stop-color="#F7DD43"/>
<stop offset="1" stop-color="#F7DD43" stop-opacity="0"/>
</linearGradient>
<linearGradient id="paint52_linear_175_1850" x1="340.5" y1="-8" x2="340.5" y2="290.818" gradientUnits="userSpaceOnUse">
<stop stop-color="#F7DD43"/>
<stop offset="1" stop-color="#F7DD43" stop-opacity="0"/>
</linearGradient>
<linearGradient id="paint53_linear_175_1850" x1="340.5" y1="-8" x2="340.5" y2="290.818" gradientUnits="userSpaceOnUse">
<stop stop-color="#F7DD43"/>
<stop offset="1" stop-color="#F7DD43" stop-opacity="0"/>
</linearGradient>
<linearGradient id="paint54_linear_175_1850" x1="340.5" y1="-8" x2="340.5" y2="290.818" gradientUnits="userSpaceOnUse">
<stop stop-color="#F7DD43"/>
<stop offset="1" stop-color="#F7DD43" stop-opacity="0"/>
</linearGradient>
<linearGradient id="paint55_linear_175_1850" x1="340.5" y1="-8" x2="340.5" y2="290.818" gradientUnits="userSpaceOnUse">
<stop stop-color="#F7DD43"/>
<stop offset="1" stop-color="#F7DD43" stop-opacity="0"/>
</linearGradient>
<linearGradient id="paint56_linear_175_1850" x1="340.5" y1="-8" x2="340.5" y2="290.818" gradientUnits="userSpaceOnUse">
<stop stop-color="#F7DD43"/>
<stop offset="1" stop-color="#F7DD43" stop-opacity="0"/>
</linearGradient>
<linearGradient id="paint57_linear_175_1850" x1="340.5" y1="-8" x2="340.5" y2="290.818" gradientUnits="userSpaceOnUse">
<stop stop-color="#F7DD43"/>
<stop offset="1" stop-color="#F7DD43" stop-opacity="0"/>
</linearGradient>
<linearGradient id="paint58_linear_175_1850" x1="340.5" y1="-8" x2="340.5" y2="290.818" gradientUnits="userSpaceOnUse">
<stop stop-color="#F7DD43"/>
<stop offset="1" stop-color="#F7DD43" stop-opacity="0"/>
</linearGradient>
<linearGradient id="paint59_linear_175_1850" x1="340.5" y1="-8" x2="340.5" y2="290.818" gradientUnits="userSpaceOnUse">
<stop stop-color="#F7DD43"/>
<stop offset="1" stop-color="#F7DD43" stop-opacity="0"/>
</linearGradient>
<linearGradient id="paint60_linear_175_1850" x1="340.5" y1="-8" x2="340.5" y2="290.818" gradientUnits="userSpaceOnUse">
<stop stop-color="#F7DD43"/>
<stop offset="1" stop-color="#F7DD43" stop-opacity="0"/>
</linearGradient>
<linearGradient id="paint61_linear_175_1850" x1="340.5" y1="-8" x2="340.5" y2="290.818" gradientUnits="userSpaceOnUse">
<stop stop-color="#F7DD43"/>
<stop offset="1" stop-color="#F7DD43" stop-opacity="0"/>
</linearGradient>
<linearGradient id="paint62_linear_175_1850" x1="340.5" y1="-8" x2="340.5" y2="290.818" gradientUnits="userSpaceOnUse">
<stop stop-color="#F7DD43"/>
<stop offset="1" stop-color="#F7DD43" stop-opacity="0"/>
</linearGradient>
<linearGradient id="paint63_linear_175_1850" x1="340.5" y1="-8" x2="340.5" y2="290.818" gradientUnits="userSpaceOnUse">
<stop stop-color="#F7DD43"/>
<stop offset="1" stop-color="#F7DD43" stop-opacity="0"/>
</linearGradient>
<linearGradient id="paint64_linear_175_1850" x1="340.5" y1="-8" x2="340.5" y2="290.818" gradientUnits="userSpaceOnUse">
<stop stop-color="#F7DD43"/>
<stop offset="1" stop-color="#F7DD43" stop-opacity="0"/>
</linearGradient>
<linearGradient id="paint65_linear_175_1850" x1="340.5" y1="-8" x2="340.5" y2="290.818" gradientUnits="userSpaceOnUse">
<stop stop-color="#F7DD43"/>
<stop offset="1" stop-color="#F7DD43" stop-opacity="0"/>
</linearGradient>
<linearGradient id="paint66_linear_175_1850" x1="340.5" y1="-8" x2="340.5" y2="290.818" gradientUnits="userSpaceOnUse">
<stop stop-color="#F7DD43"/>
<stop offset="1" stop-color="#F7DD43" stop-opacity="0"/>
</linearGradient>
<linearGradient id="paint67_linear_175_1850" x1="340.5" y1="-8" x2="340.5" y2="290.818" gradientUnits="userSpaceOnUse">
<stop stop-color="#F7DD43"/>
<stop offset="1" stop-color="#F7DD43" stop-opacity="0"/>
</linearGradient>
<linearGradient id="paint68_linear_175_1850" x1="340.5" y1="-8" x2="340.5" y2="290.818" gradientUnits="userSpaceOnUse">
<stop stop-color="#F7DD43"/>
<stop offset="1" stop-color="#F7DD43" stop-opacity="0"/>
</linearGradient>
<linearGradient id="paint69_linear_175_1850" x1="340.5" y1="-8" x2="340.5" y2="290.818" gradientUnits="userSpaceOnUse">
<stop stop-color="#F7DD43"/>
<stop offset="1" stop-color="#F7DD43" stop-opacity="0"/>
</linearGradient>
<linearGradient id="paint70_linear_175_1850" x1="340.5" y1="-8" x2="340.5" y2="290.818" gradientUnits="userSpaceOnUse">
<stop stop-color="#F7DD43"/>
<stop offset="1" stop-color="#F7DD43" stop-opacity="0"/>
</linearGradient>
<linearGradient id="paint71_linear_175_1850" x1="340.5" y1="-8" x2="340.5" y2="290.818" gradientUnits="userSpaceOnUse">
<stop stop-color="#F7DD43"/>
<stop offset="1" stop-color="#F7DD43" stop-opacity="0"/>
</linearGradient>
<linearGradient id="paint72_linear_175_1850" x1="340.5" y1="-8" x2="340.5" y2="290.818" gradientUnits="userSpaceOnUse">
<stop stop-color="#F7DD43"/>
<stop offset="1" stop-color="#F7DD43" stop-opacity="0"/>
</linearGradient>
<linearGradient id="paint73_linear_175_1850" x1="340.5" y1="-8" x2="340.5" y2="290.818" gradientUnits="userSpaceOnUse">
<stop stop-color="#F7DD43"/>
<stop offset="1" stop-color="#F7DD43" stop-opacity="0"/>
</linearGradient>
<linearGradient id="paint74_linear_175_1850" x1="340.5" y1="-8" x2="340.5" y2="290.818" gradientUnits="userSpaceOnUse">
<stop stop-color="#F7DD43"/>
<stop offset="1" stop-color="#F7DD43" stop-opacity="0"/>
</linearGradient>
<linearGradient id="paint75_linear_175_1850" x1="340.5" y1="-8" x2="340.5" y2="290.818" gradientUnits="userSpaceOnUse">
<stop stop-color="#F7DD43"/>
<stop offset="1" stop-color="#F7DD43" stop-opacity="0"/>
</linearGradient>
<linearGradient id="paint76_linear_175_1850" x1="340.5" y1="-8" x2="340.5" y2="290.818" gradientUnits="userSpaceOnUse">
<stop stop-color="#F7DD43"/>
<stop offset="1" stop-color="#F7DD43" stop-opacity="0"/>
</linearGradient>
<linearGradient id="paint77_linear_175_1850" x1="340.5" y1="-8" x2="340.5" y2="290.818" gradientUnits="userSpaceOnUse">
<stop stop-color="#F7DD43"/>
<stop offset="1" stop-color="#F7DD43" stop-opacity="0"/>
</linearGradient>
<linearGradient id="paint78_linear_175_1850" x1="340.5" y1="-8" x2="340.5" y2="290.818" gradientUnits="userSpaceOnUse">
<stop stop-color="#F7DD43"/>
<stop offset="1" stop-color="#F7DD43" stop-opacity="0"/>
</linearGradient>
<linearGradient id="paint79_linear_175_1850" x1="340.5" y1="-8" x2="340.5" y2="290.818" gradientUnits="userSpaceOnUse">
<stop stop-color="#F7DD43"/>
<stop offset="1" stop-color="#F7DD43" stop-opacity="0"/>
</linearGradient>
<linearGradient id="paint80_linear_175_1850" x1="340.5" y1="-8" x2="340.5" y2="290.818" gradientUnits="userSpaceOnUse">
<stop stop-color="#F7DD43"/>
<stop offset="1" stop-color="#F7DD43" stop-opacity="0"/>
</linearGradient>
<linearGradient id="paint81_linear_175_1850" x1="340.5" y1="-8" x2="340.5" y2="290.818" gradientUnits="userSpaceOnUse">
<stop stop-color="#F7DD43"/>
<stop offset="1" stop-color="#F7DD43" stop-opacity="0"/>
</linearGradient>
<linearGradient id="paint82_linear_175_1850" x1="340.5" y1="-8" x2="340.5" y2="290.818" gradientUnits="userSpaceOnUse">
<stop stop-color="#F7DD43"/>
<stop offset="1" stop-color="#F7DD43" stop-opacity="0"/>
</linearGradient>
<linearGradient id="paint83_linear_175_1850" x1="340.5" y1="-8" x2="340.5" y2="290.818" gradientUnits="userSpaceOnUse">
<stop stop-color="#F7DD43"/>
<stop offset="1" stop-color="#F7DD43" stop-opacity="0"/>
</linearGradient>
<linearGradient id="paint84_linear_175_1850" x1="340.5" y1="-8" x2="340.5" y2="290.818" gradientUnits="userSpaceOnUse">
<stop stop-color="#F7DD43"/>
<stop offset="1" stop-color="#F7DD43" stop-opacity="0"/>
</linearGradient>
<linearGradient id="paint85_linear_175_1850" x1="340.5" y1="-8" x2="340.5" y2="290.818" gradientUnits="userSpaceOnUse">
<stop stop-color="#F7DD43"/>
<stop offset="1" stop-color="#F7DD43" stop-opacity="0"/>
</linearGradient>
<linearGradient id="paint86_linear_175_1850" x1="340.5" y1="-8" x2="340.5" y2="290.818" gradientUnits="userSpaceOnUse">
<stop stop-color="#F7DD43"/>
<stop offset="1" stop-color="#F7DD43" stop-opacity="0"/>
</linearGradient>
<linearGradient id="paint87_linear_175_1850" x1="340.5" y1="-8" x2="340.5" y2="290.818" gradientUnits="userSpaceOnUse">
<stop stop-color="#F7DD43"/>
<stop offset="1" stop-color="#F7DD43" stop-opacity="0"/>
</linearGradient>
<linearGradient id="paint88_linear_175_1850" x1="340.5" y1="-8" x2="340.5" y2="290.818" gradientUnits="userSpaceOnUse">
<stop stop-color="#F7DD43"/>
<stop offset="1" stop-color="#F7DD43" stop-opacity="0"/>
</linearGradient>
<linearGradient id="paint89_linear_175_1850" x1="340.5" y1="-8" x2="340.5" y2="290.818" gradientUnits="userSpaceOnUse">
<stop stop-color="#F7DD43"/>
<stop offset="1" stop-color="#F7DD43" stop-opacity="0"/>
</linearGradient>
<linearGradient id="paint90_linear_175_1850" x1="340.5" y1="-8" x2="340.5" y2="290.818" gradientUnits="userSpaceOnUse">
<stop stop-color="#F7DD43"/>
<stop offset="1" stop-color="#F7DD43" stop-opacity="0"/>
</linearGradient>
<linearGradient id="paint91_linear_175_1850" x1="340.5" y1="-8" x2="340.5" y2="290.818" gradientUnits="userSpaceOnUse">
<stop stop-color="#F7DD43"/>
<stop offset="1" stop-color="#F7DD43" stop-opacity="0"/>
</linearGradient>
<linearGradient id="paint92_linear_175_1850" x1="340.5" y1="-8" x2="340.5" y2="290.818" gradientUnits="userSpaceOnUse">
<stop stop-color="#F7DD43"/>
<stop offset="1" stop-color="#F7DD43" stop-opacity="0"/>
</linearGradient>
<linearGradient id="paint93_linear_175_1850" x1="340.5" y1="-8" x2="340.5" y2="290.818" gradientUnits="userSpaceOnUse">
<stop stop-color="#F7DD43"/>
<stop offset="1" stop-color="#F7DD43" stop-opacity="0"/>
</linearGradient>
<clipPath id="clip0_175_1850">
<rect width="400" height="4404" fill="white"/>
</clipPath>
</defs>
</svg>
